Pontano-Bold.ufo
<glyph name="exclam" format="1">
  <advance width="428"/>
  <unicode hex="0021"/>
  <outline>
    <contour>
      <point x="112" y="0" type="line"/>
      <point x="340" y="0" type="line"/>
      <point x="340" y="223" type="line"/>
      <point x="112" y="223" type="line"/>
    </contour>
    <contour>
      <point x="180" y="353" type="line"/>
      <point x="270" y="353" type="line"/>
      <point x="355" y="1464" type="line"/>
      <point x="80" y="1464" type="line"/>
    </contour>
  </outline>
</glyph>
<glyph name="quotedbl" format="1">
  <advance width="510"/>
  <unicode hex="0022"/>
  <outline>
    <contour>
      <point x="69" y="1000" type="line"/>
      <point x="146" y="1000" type="line"/>
      <point x="210" y="1464" type="line"/>
      <point x="4" y="1464" type="line"/>
    </contour>
    <contour>
      <point x="366" y="1000" type="line"/>
      <point x="443" y="1000" type="line"/>
      <point x="507" y="1464" type="line"/>
      <point x="301" y="1464" type="line"/>
    </contour>
  </outline>
</glyph>
<glyph name="numbersign" format="1">
  <advance width="1221"/>
  <unicode hex="0023"/>
  <outline>
    <contour>
      <point x="324" y="0" type="line"/>
      <point x="124" y="-1" type="line"/>
      <point x="230" y="526" type="line"/>
      <point x="46" y="526" type="line"/>
      <point x="87" y="672" type="line"/>
      <point x="259" y="672" type="line"/>
      <point x="302" y="877" type="line"/>
      <point x="116" y="877" type="line"/>
      <point x="154" y="1023" type="line"/>
      <point x="331" y="1023" type="line"/>
      <point x="420" y="1464" type="line"/>
      <point x="626" y="1464" type="line"/>
      <point x="535" y="1023" type="line"/>
      <point x="765" y="1023" type="line"/>
      <point x="854" y="1464" type="line"/>
      <point x="1061" y="1464" type="line"/>
      <point x="970" y="1023" type="line"/>
      <point x="1180" y="1023" type="line"/>
      <point x="1142" y="877" type="line"/>
      <point x="941" y="877" type="line"/>
      <point x="897" y="672" type="line"/>
      <point x="1113" y="672" type="line"/>
      <point x="1072" y="526" type="line"/>
      <point x="868" y="526" type="line"/>
      <point x="760" y="0" type="line"/>
      <point x="560" y="-1" type="line"/>
      <point x="666" y="526" type="line"/>
      <point x="432" y="526" type="line"/>
    </contour>
    <contour>
      <point x="506" y="877" type="line"/>
      <point x="461" y="672" type="line"/>
      <point x="695" y="672" type="line"/>
      <point x="736" y="877" type="line"/>
    </contour>
  </outline>
</glyph>
<glyph name="dollar" format="1">
  <advance width="1216"/>
  <unicode hex="0024"/>
  <outline>
    <contour>
      <point x="581" y="1672" type="line"/>
      <point x="713" y="1672" type="line"/>
      <point x="713" y="-204" type="line"/>
      <point x="581" y="-204" type="line"/>
    </contour>
    <component base="S"/>
  </outline>
</glyph>
<glyph name="percent" format="1">
  <advance width="1677"/>
  <unicode hex="0025"/>
  <outline>
    <contour>
      <point x="1279" y="115" type="curve" smooth="yes"/>
      <point x="1179" y="115"/>
      <point x="1127" y="207"/>
      <point x="1127" y="325" type="curve" smooth="yes"/>
      <point x="1127" y="436"/>
      <point x="1184" y="531"/>
      <point x="1279" y="531" type="curve" smooth="yes"/>
      <point x="1377" y="531"/>
      <point x="1430" y="440"/>
      <point x="1430" y="324" type="curve" smooth="yes"/>
      <point x="1430" y="207"/>
      <point x="1376" y="115"/>
    </contour>
    <contour>
      <point x="1280" y="-24" type="curve" smooth="yes"/>
      <point x="1481" y="-24"/>
      <point x="1593" y="148"/>
      <point x="1593" y="322" type="curve" smooth="yes"/>
      <point x="1593" y="494"/>
      <point x="1481" y="668"/>
      <point x="1280" y="668" type="curve" smooth="yes"/>
      <point x="1077" y="668"/>
      <point x="963" y="493"/>
      <point x="963" y="320" type="curve" smooth="yes"/>
      <point x="963" y="147"/>
      <point x="1075" y="-24"/>
    </contour>
    <contour>
      <point x="356" y="913" type="curve" smooth="yes"/>
      <point x="256" y="913"/>
      <point x="204" y="1005"/>
      <point x="204" y="1123" type="curve" smooth="yes"/>
      <point x="204" y="1234"/>
      <point x="261" y="1329"/>
      <point x="356" y="1329" type="curve" smooth="yes"/>
      <point x="454" y="1329"/>
      <point x="507" y="1238"/>
      <point x="507" y="1122" type="curve" smooth="yes"/>
      <point x="507" y="1005"/>
      <point x="453" y="913"/>
    </contour>
    <contour>
      <point x="357" y="774" type="curve" smooth="yes"/>
      <point x="558" y="774"/>
      <point x="670" y="946"/>
      <point x="670" y="1120" type="curve" smooth="yes"/>
      <point x="670" y="1292"/>
      <point x="558" y="1466"/>
      <point x="357" y="1466" type="curve" smooth="yes"/>
      <point x="154" y="1466"/>
      <point x="40" y="1291"/>
      <point x="40" y="1118" type="curve" smooth="yes"/>
      <point x="40" y="945"/>
      <point x="152" y="774"/>
    </contour>
    <contour>
      <point x="281" y="-32" type="line"/>
      <point x="1516" y="1398" type="line"/>
      <point x="1405" y="1502" type="line"/>
      <point x="169" y="73" type="line"/>
    </contour>
  </outline>
</glyph>
<glyph name="quotesingle" format="1">
  <advance width="280"/>
  <unicode hex="0027"/>
  <outline>
    <contour>
      <point x="112" y="938" type="line"/>
      <point x="208" y="938" type="line"/>
      <point x="289" y="1526" type="line"/>
      <point x="30" y="1526" type="line"/>
    </contour>
  </outline>
</glyph>
<glyph name="parenleft" format="1">
  <advance width="602"/>
  <unicode hex="0028"/>
  <outline>
    <contour>
      <point x="523" y="-181" type="curve"/>
      <point x="566" y="-48" type="line"/>
      <point x="346" y="25"/>
      <point x="228" y="289"/>
      <point x="228" y="703" type="curve" smooth="yes"/>
      <point x="228" y="1117"/>
      <point x="346" y="1381"/>
      <point x="566" y="1454" type="curve"/>
      <point x="523" y="1587" type="line"/>
      <point x="232" y="1518"/>
      <point x="-11" y="1242"/>
      <point x="-11" y="703" type="curve" smooth="yes"/>
      <point x="-11" y="164"/>
      <point x="232" y="-112"/>
    </contour>
  </outline>
</glyph>
<glyph name="parenright" format="1">
  <advance width="602"/>
  <unicode hex="0029"/>
  <outline>
    <contour>
      <point x="32" y="-181" type="line"/>
      <point x="323" y="-112"/>
      <point x="566" y="164"/>
      <point x="566" y="703" type="curve" smooth="yes"/>
      <point x="566" y="1242"/>
      <point x="323" y="1518"/>
      <point x="32" y="1587" type="curve"/>
      <point x="-11" y="1454" type="line"/>
      <point x="209" y="1381"/>
      <point x="327" y="1117"/>
      <point x="327" y="703" type="curve" smooth="yes"/>
      <point x="327" y="289"/>
      <point x="209" y="25"/>
      <point x="-11" y="-48" type="curve"/>
    </contour>
  </outline>
</glyph>
<glyph name="asterisk" format="1">
  <advance width="826"/>
  <unicode hex="002A"/>
  <outline>
    <contour>
      <point x="361" y="752" type="line"/>
      <point x="476" y="752" type="line"/>
      <point x="469" y="1029" type="line"/>
      <point x="725" y="873" type="line"/>
      <point x="784" y="984" type="line"/>
      <point x="518" y="1114" type="line"/>
      <point x="783" y="1244" type="line"/>
      <point x="724" y="1355" type="line"/>
      <point x="469" y="1203" type="line"/>
      <point x="476" y="1476" type="line"/>
      <point x="361" y="1476" type="line"/>
      <point x="366" y="1202" type="line"/>
      <point x="110" y="1354" type="line"/>
      <point x="51" y="1243" type="line"/>
      <point x="317" y="1113" type="line"/>
      <point x="52" y="983" type="line"/>
      <point x="111" y="872" type="line"/>
      <point x="366" y="1028" type="line"/>
    </contour>
  </outline>
</glyph>
<glyph name="plus" format="1">
  <advance width="860"/>
  <unicode hex="002B"/>
  <outline>
    <contour>
      <point x="347" y="350" type="line"/>
      <point x="507" y="350" type="line"/>
      <point x="507" y="649" type="line"/>
      <point x="778" y="649" type="line"/>
      <point x="778" y="806" type="line"/>
      <point x="507" y="806" type="line"/>
      <point x="507" y="1100" type="line"/>
      <point x="347" y="1100" type="line"/>
      <point x="347" y="806" type="line"/>
      <point x="72" y="806" type="line"/>
      <point x="72" y="649" type="line"/>
      <point x="347" y="649" type="line"/>
    </contour>
  </outline>
</glyph>
<glyph name="comma" format="1">
  <advance width="445"/>
  <unicode hex="002C"/>
  <outline>
    <contour>
      <point x="185" y="-301" type="line"/>
      <point x="325.105" y="-223.054"/>
      <point x="362.02" y="-117.851"/>
      <point x="362.02" y="80.8831" type="curve" smooth="yes"/>
      <point x="362.02" y="83.5715"/>
      <point x="362.013" y="86.2771"/>
      <point x="362" y="89" type="curve" smooth="yes"/>
      <point x="362" y="243" type="line"/>
      <point x="84" y="243" type="line"/>
      <point x="84" y="-4" type="line"/>
      <point x="207" y="-17" type="line"/>
      <point x="207" y="-90"/>
      <point x="146" y="-172"/>
      <point x="112" y="-205" type="curve"/>
    </contour>
    <contour>
      <point x="222.5" y="0" type="move" name="_bot"/>
    </contour>
  </outline>
</glyph>
<glyph name="period" format="1">
  <advance width="434"/>
  <unicode hex="002E"/>
  <outline>
    <contour>
      <point x="78" y="0" type="line"/>
      <point x="352" y="0" type="line"/>
      <point x="352" y="244" type="line"/>
      <point x="78" y="244" type="line"/>
    </contour>
  </outline>
</glyph>
<glyph name="zero" format="1">
  <advance width="1246"/>
  <unicode hex="0030"/>
  <outline>
    <contour>
      <point x="623" y="161" type="curve" smooth="yes"/>
      <point x="390" y="161"/>
      <point x="309" y="355"/>
      <point x="309" y="724" type="curve" smooth="yes"/>
      <point x="309" y="1094"/>
      <point x="390" y="1304"/>
      <point x="623" y="1304" type="curve" smooth="yes"/>
      <point x="856" y="1304"/>
      <point x="937" y="1094"/>
      <point x="937" y="724" type="curve" smooth="yes"/>
      <point x="937" y="355"/>
      <point x="856" y="161"/>
    </contour>
    <contour>
      <point x="623" y="-24" type="curve" smooth="yes"/>
      <point x="1009" y="-24"/>
      <point x="1181" y="264"/>
      <point x="1181" y="724" type="curve" smooth="yes"/>
      <point x="1181" y="1184"/>
      <point x="1009" y="1489"/>
      <point x="623" y="1489" type="curve" smooth="yes"/>
      <point x="237" y="1489"/>
      <point x="65" y="1184"/>
      <point x="65" y="724" type="curve" smooth="yes"/>
      <point x="65" y="264"/>
      <point x="237" y="-24"/>
    </contour>
  </outline>
</glyph>
<glyph name="one" format="1">
  <advance width="946"/>
  <unicode hex="0031"/>
  <outline>
    <contour>
      <point x="432" y="0" type="line"/>
      <point x="663" y="0" type="line"/>
      <point x="663" y="1464" type="line"/>
      <point x="463" y="1464" type="line"/>
      <point x="136" y="1331" type="line"/>
      <point x="204" y="1148" type="line"/>
      <point x="432" y="1248" type="line"/>
    </contour>
  </outline>
</glyph>
<glyph name="two" format="1">
  <advance width="1246"/>
  <unicode hex="0032"/>
  <outline>
    <contour>
      <point x="1082.3" y="1023.45" type="curve" smooth="yes"/>
      <point x="1082.3" y="1337.67"/>
      <point x="889.38" y="1489"/>
      <point x="615" y="1489" type="curve" smooth="yes"/>
      <point x="390" y="1489"/>
      <point x="224" y="1397"/>
      <point x="105" y="1141" type="curve"/>
      <point x="307" y="1060" type="line"/>
      <point x="391" y="1224"/>
      <point x="482" y="1305"/>
      <point x="627" y="1305" type="curve" smooth="yes"/>
      <point x="770" y="1305"/>
      <point x="849" y="1194"/>
      <point x="849" y="1047" type="curve" smooth="yes"/>
      <point x="849" y="587"/>
      <point x="152" y="562"/>
      <point x="149" y="0" type="curve"/>
      <point x="1084" y="0" type="line"/>
      <point x="1084" y="183" type="line"/>
      <point x="412" y="183" type="line"/>
      <point x="614.056" y="478.692"/>
      <point x="1082.3" y="603.403"/>
    </contour>
  </outline>
</glyph>
<glyph name="four" format="1">
  <advance width="1252"/>
  <unicode hex="0034"/>
  <outline>
    <contour>
      <point x="750" y="0" type="line"/>
      <point x="968" y="0" type="line"/>
      <point x="968" y="346" type="line"/>
      <point x="1199" y="346" type="line"/>
      <point x="1199" y="516" type="line"/>
      <point x="967" y="516" type="line"/>
      <point x="967" y="1464" type="line"/>
      <point x="651" y="1464" type="line"/>
      <point x="103" y="513" type="line"/>
      <point x="103" y="346" type="line"/>
      <point x="750" y="346" type="line"/>
    </contour>
    <contour>
      <point x="315" y="516" type="line"/>
      <point x="750" y="1317" type="line"/>
      <point x="750" y="516" type="line"/>
    </contour>
  </outline>
</glyph>
<glyph name="five" format="1">
  <advance width="1246"/>
  <unicode hex="0035"/>
  <outline>
    <contour>
      <point x="652" y="928" type="curve" smooth="yes"/>
      <point x="983" y="928"/>
      <point x="1135" y="719"/>
      <point x="1135" y="461" type="curve" smooth="yes"/>
      <point x="1135" y="181"/>
      <point x="941" y="-24"/>
      <point x="632" y="-24" type="curve" smooth="yes"/>
      <point x="395" y="-24"/>
      <point x="210" y="66"/>
      <point x="116" y="309" type="curve"/>
      <point x="300" y="382" type="line"/>
      <point x="373" y="229"/>
      <point x="491" y="149"/>
      <point x="623" y="149" type="curve" smooth="yes"/>
      <point x="782" y="149"/>
      <point x="914" y="273"/>
      <point x="914" y="453" type="curve" smooth="yes"/>
      <point x="914" y="621"/>
      <point x="813" y="751"/>
      <point x="642" y="751" type="curve" smooth="yes"/>
      <point x="541" y="751"/>
      <point x="446" y="725"/>
      <point x="347" y="658" type="curve"/>
      <point x="212" y="744" type="line"/>
      <point x="308" y="1464" type="line"/>
      <point x="1019" y="1464" type="line"/>
      <point x="1019" y="1275" type="line"/>
      <point x="502" y="1275" type="line"/>
      <point x="438" y="856" type="line"/>
      <point x="375" y="858" type="line"/>
      <point x="465" y="908"/>
      <point x="572" y="928"/>
    </contour>
  </outline>
</glyph>
<glyph name="six" format="1">
  <advance width="1253"/>
  <unicode hex="0036"/>
  <outline>
    <contour>
      <point x="663" y="-24" type="curve" smooth="yes"/>
      <point x="962" y="-24"/>
      <point x="1142" y="215"/>
      <point x="1142" y="476" type="curve" smooth="yes"/>
      <point x="1142" y="781"/>
      <point x="939" y="947"/>
      <point x="696" y="948" type="curve" smooth="yes"/>
      <point x="583" y="949"/>
      <point x="477" y="929"/>
      <point x="372" y="855" type="curve"/>
      <point x="386" y="1206"/>
      <point x="516" y="1305"/>
      <point x="689" y="1304" type="curve" smooth="yes"/>
      <point x="769" y="1304"/>
      <point x="867" y="1279"/>
      <point x="973" y="1221" type="curve"/>
      <point x="1035" y="1396" type="line"/>
      <point x="916" y="1460"/>
      <point x="771" y="1489"/>
      <point x="673" y="1489" type="curve" smooth="yes"/>
      <point x="337" y="1489"/>
      <point x="118" y="1196"/>
      <point x="118" y="695" type="curve" smooth="yes"/>
      <point x="118" y="247"/>
      <point x="329" y="-24"/>
    </contour>
    <contour>
      <point x="663" y="162" type="curve" smooth="yes"/>
      <point x="451" y="162"/>
      <point x="372" y="397"/>
      <point x="372" y="636" type="curve" smooth="yes"/>
      <point x="372" y="667" type="line"/>
      <point x="472" y="741"/>
      <point x="561" y="771"/>
      <point x="663" y="771" type="curve" smooth="yes"/>
      <point x="824" y="770"/>
      <point x="903" y="699"/>
      <point x="903" y="472" type="curve" smooth="yes"/>
      <point x="903" y="266"/>
      <point x="811" y="162"/>
    </contour>
  </outline>
</glyph>
<glyph name="seven" format="1">
  <advance width="1246"/>
  <unicode hex="0037"/>
  <outline>
    <contour>
      <point x="569" y="-1" type="line"/>
      <point x="1078" y="1287" type="line"/>
      <point x="1078" y="1464" type="line"/>
      <point x="193" y="1464" type="line"/>
      <point x="209" y="1285" type="line"/>
      <point x="835" y="1285" type="line"/>
      <point x="317" y="0" type="line"/>
    </contour>
  </outline>
</glyph>
<glyph name="eight" format="1">
  <advance width="1259"/>
  <unicode hex="0038"/>
  <outline>
    <contour>
      <point x="614" y="-24" type="curve" smooth="yes"/>
      <point x="932" y="-24"/>
      <point x="1107" y="160"/>
      <point x="1107" y="365" type="curve" smooth="yes"/>
      <point x="1107" y="506"/>
      <point x="1105" y="645"/>
      <point x="850" y="768" type="curve"/>
      <point x="939" y="800"/>
      <point x="1108" y="903"/>
      <point x="1108" y="1099" type="curve" smooth="yes"/>
      <point x="1108" y="1375"/>
      <point x="884" y="1489"/>
      <point x="639" y="1489" type="curve" smooth="yes"/>
      <point x="401" y="1489"/>
      <point x="158" y="1379"/>
      <point x="158" y="1101" type="curve" smooth="yes"/>
      <point x="158" y="925"/>
      <point x="275" y="795"/>
      <point x="388" y="742" type="curve"/>
      <point x="184" y="623"/>
      <point x="147" y="503"/>
      <point x="151" y="351" type="curve" smooth="yes"/>
      <point x="155" y="154"/>
      <point x="326" y="-24"/>
    </contour>
    <contour>
      <point x="629" y="163" type="curve" smooth="yes"/>
      <point x="492" y="164"/>
      <point x="415" y="251"/>
      <point x="402" y="360" type="curve" smooth="yes"/>
      <point x="389" y="476"/>
      <point x="402" y="580"/>
      <point x="547" y="675" type="curve"/>
      <point x="762" y="613"/>
      <point x="871" y="586"/>
      <point x="871" y="368" type="curve" smooth="yes"/>
      <point x="871" y="243"/>
      <point x="757" y="162"/>
    </contour>
    <contour>
      <point x="679" y="832" type="curve"/>
      <point x="474" y="897"/>
      <point x="399" y="914"/>
      <point x="399" y="1104" type="curve" smooth="yes"/>
      <point x="399" y="1232"/>
      <point x="489" y="1304"/>
      <point x="639" y="1304" type="curve" smooth="yes"/>
      <point x="795" y="1304"/>
      <point x="869" y="1218"/>
      <point x="869" y="1101" type="curve" smooth="yes"/>
      <point x="869" y="944"/>
      <point x="770" y="880"/>
    </contour>
  </outline>
</glyph>
<glyph name="colon" format="1">
  <advance width="482"/>
  <unicode hex="003A"/>
  <outline>
    <contour>
      <point x="375" y="408" type="line"/>
      <point x="375" y="171" type="line"/>
      <point x="116" y="171" type="line"/>
      <point x="116" y="408" type="line"/>
    </contour>
    <contour>
      <point x="116" y="1047" type="line"/>
      <point x="375" y="1047" type="line"/>
      <point x="375" y="808" type="line"/>
      <point x="116" y="808" type="line"/>
    </contour>
  </outline>
</glyph>
<glyph name="semicolon" format="1">
  <advance width="478"/>
  <unicode hex="003B"/>
  <outline>
    <contour>
      <point x="116" y="1047" type="line"/>
      <point x="375" y="1047" type="line"/>
      <point x="375" y="808" type="line"/>
      <point x="116" y="808" type="line"/>
    </contour>
    <contour>
      <point x="123" y="240" type="line"/>
      <point x="393" y="240" type="line"/>
      <point x="393" y="95" type="line" smooth="yes"/>
      <point x="393" y="-103"/>
      <point x="362" y="-214"/>
      <point x="220" y="-295" type="curve"/>
      <point x="149" y="-203" type="line"/>
      <point x="182" y="-172"/>
      <point x="242" y="-92"/>
      <point x="242" y="-13" type="curve"/>
      <point x="123" y="0" type="line"/>
    </contour>
  </outline>
</glyph>
<glyph name="less" format="1">
  <advance width="1051"/>
  <unicode hex="003C"/>
  <outline>
    <contour>
      <point x="998" y="67" type="line"/>
      <point x="998" y="286" type="line"/>
      <point x="300" y="524" type="line"/>
      <point x="998" y="747" type="line"/>
      <point x="998" y="988" type="line"/>
      <point x="49" y="638" type="line"/>
      <point x="49" y="433" type="line"/>
    </contour>
  </outline>
</glyph>
<glyph name="equal" format="1">
  <advance width="820"/>
  <unicode hex="003D"/>
  <outline>
    <contour>
      <point x="135" y="264" type="line"/>
      <point x="685" y="264" type="line"/>
      <point x="685" y="418" type="line"/>
      <point x="135" y="418" type="line"/>
    </contour>
    <contour>
      <point x="135" y="513" type="line"/>
      <point x="685" y="513" type="line"/>
      <point x="685" y="667" type="line"/>
      <point x="135" y="667" type="line"/>
    </contour>
  </outline>
</glyph>
<glyph name="greater" format="1">
  <advance width="1051"/>
  <unicode hex="003E"/>
  <outline>
    <contour>
      <point x="49" y="775" type="line"/>
      <point x="49" y="983" type="line"/>
      <point x="998" y="617" type="line"/>
      <point x="998" y="423" type="line"/>
      <point x="49" y="72" type="line"/>
      <point x="49" y="301" type="line"/>
      <point x="759" y="531" type="line"/>
    </contour>
  </outline>
</glyph>
<glyph name="at" format="1">
  <advance width="1704"/>
  <unicode hex="0040"/>
  <outline>
    <contour>
      <point x="1073" y="239" type="curve"/>
      <point x="1018" y="140"/>
      <point x="892" y="62"/>
      <point x="764" y="67" type="curve" smooth="yes"/>
      <point x="549" y="75"/>
      <point x="425" y="242"/>
      <point x="425" y="425" type="curve" smooth="yes"/>
      <point x="425" y="679"/>
      <point x="614" y="940"/>
      <point x="866" y="940" type="curve" smooth="yes"/>
      <point x="951" y="940"/>
      <point x="1046" y="900"/>
      <point x="1105" y="844" type="curve"/>
      <point x="1135" y="917" type="line"/>
      <point x="1280" y="917" type="line"/>
      <point x="1191" y="326" type="line" smooth="yes"/>
      <point x="1182" y="264"/>
      <point x="1223" y="241"/>
      <point x="1276" y="241" type="curve" smooth="yes"/>
      <point x="1373" y="241"/>
      <point x="1443" y="339"/>
      <point x="1443" y="608" type="curve" smooth="yes"/>
      <point x="1443" y="938"/>
      <point x="1186" y="1097"/>
      <point x="886" y="1097" type="curve" smooth="yes"/>
      <point x="508" y="1097"/>
      <point x="274" y="755"/>
      <point x="274" y="467" type="curve" smooth="yes"/>
      <point x="274" y="171"/>
      <point x="440" y="-71"/>
      <point x="849" y="-71" type="curve" smooth="yes"/>
      <point x="1017" y="-71"/>
      <point x="1163" y="-15"/>
      <point x="1221" y="19" type="curve"/>
      <point x="1288" y="-105" type="line"/>
      <point x="1161" y="-179"/>
      <point x="1014" y="-223"/>
      <point x="842" y="-223" type="curve" smooth="yes"/>
      <point x="320" y="-223"/>
      <point x="84" y="97"/>
      <point x="84" y="476" type="curve" smooth="yes"/>
      <point x="84" y="865"/>
      <point x="383" y="1256"/>
      <point x="883" y="1256" type="curve" smooth="yes"/>
      <point x="1277" y="1256"/>
      <point x="1621" y="998"/>
      <point x="1621" y="596" type="curve" smooth="yes"/>
      <point x="1621" y="275"/>
      <point x="1442" y="106"/>
      <point x="1258" y="106" type="curve" smooth="yes"/>
      <point x="1202" y="106"/>
      <point x="1102" y="132"/>
    </contour>
    <contour>
      <point x="1073" y="724" type="line"/>
      <point x="1018" y="771"/>
      <point x="950" y="799"/>
      <point x="879" y="799" type="curve" smooth="yes"/>
      <point x="732" y="799"/>
      <point x="614" y="655"/>
      <point x="614" y="422" type="curve" smooth="yes"/>
      <point x="614" y="295"/>
      <point x="687" y="211"/>
      <point x="783" y="211" type="curve" smooth="yes"/>
      <point x="873" y="211"/>
      <point x="1001" y="259"/>
      <point x="1039" y="504" type="curve" smooth="yes"/>
    </contour>
  </outline>
</glyph>
<glyph name="A" format="1">
  <advance width="1306"/>
  <unicode hex="0041"/>
  <outline>
    <contour>
      <point x="1150" y="0" type="move" name="ogonek"/>
    </contour>
    <contour>
      <point x="28" y="0" type="line"/>
      <point x="259" y="0" type="line"/>
      <point x="373" y="376" type="line"/>
      <point x="914" y="376" type="line"/>
      <point x="1035" y="0" type="line"/>
      <point x="1278" y="0" type="line"/>
      <point x="816" y="1464" type="line"/>
      <point x="480" y="1464" type="line"/>
    </contour>
    <contour>
      <point x="423" y="545" type="line"/>
      <point x="643" y="1313" type="line"/>
      <point x="862" y="545" type="line"/>
    </contour>
  </outline>
</glyph>
<glyph name="A" format="1">
  <advance width="1297"/>
  <unicode hex="0041"/>
  <outline>
    <contour>
      <point x="28" y="0" type="line"/>
      <point x="484" y="1464" type="line"/>
      <point x="804" y="1464" type="line"/>
      <point x="1269" y="0" type="line"/>
      <point x="1038" y="0" type="line"/>
      <point x="916" y="379" type="line"/>
      <point x="364" y="379" type="line"/>
      <point x="248" y="0" type="line"/>
    </contour>
    <contour>
      <point x="640" y="1320" type="curve"/>
      <point x="640" y="1320"/>
      <point x="412" y="540"/>
      <point x="412" y="540" type="curve"/>
      <point x="866" y="540" type="line"/>
      <point x="866" y="540"/>
      <point x="640" y="1320"/>
    </contour>
    <contour>
      <point x="1145" y="2" type="move" name="ogonek"/>
    </contour>
    <contour>
      <point x="646" y="1462" type="move" name="top"/>
    </contour>
  </outline>
</glyph>
<glyph name="B" format="1">
  <advance width="1335"/>
  <unicode hex="0042"/>
  <outline>
    <contour>
      <point x="134" y="0" type="line"/>
      <point x="560" y="0" type="line" smooth="yes"/>
      <point x="1018" y="0"/>
      <point x="1256" y="85"/>
      <point x="1256" y="413" type="curve" smooth="yes"/>
      <point x="1256" y="601"/>
      <point x="1201" y="744"/>
      <point x="990" y="777" type="curve"/>
      <point x="1181" y="813"/>
      <point x="1208" y="951"/>
      <point x="1207" y="1110" type="curve" smooth="yes"/>
      <point x="1206" y="1417"/>
      <point x="898" y="1464"/>
      <point x="596" y="1464" type="curve" smooth="yes"/>
      <point x="134" y="1464" type="line"/>
    </contour>
    <contour>
      <point x="365" y="172" type="line"/>
      <point x="365" y="692" type="line"/>
      <point x="639" y="692" type="line" smooth="yes"/>
      <point x="905" y="692"/>
      <point x="1026" y="665"/>
      <point x="1026" y="420" type="curve" smooth="yes"/>
      <point x="1026" y="174"/>
      <point x="803" y="172"/>
      <point x="582" y="172" type="curve" smooth="yes"/>
    </contour>
    <contour>
      <point x="365" y="860" type="line"/>
      <point x="365" y="1292" type="line"/>
      <point x="603" y="1292" type="line" smooth="yes"/>
      <point x="838" y="1292"/>
      <point x="975" y="1298"/>
      <point x="988" y="1116" type="curve" smooth="yes"/>
      <point x="1002" y="911"/>
      <point x="957" y="860"/>
      <point x="650" y="860" type="curve" smooth="yes"/>
    </contour>
    <contour>
      <point x="667.5" y="1464" type="move" name="top"/>
    </contour>
  </outline>
</glyph>
<glyph name="B" format="1">
  <advance width="1335"/>
  <unicode hex="0042"/>
  <outline>
    <contour>
      <point x="1207.03" y="1101.84" type="curve" smooth="yes"/>
      <point x="1207.03" y="1416.44"/>
      <point x="903.719" y="1464"/>
      <point x="596" y="1464" type="curve" smooth="yes"/>
      <point x="134" y="1464" type="line"/>
      <point x="134" y="0" type="line"/>
      <point x="560" y="0" type="line" smooth="yes"/>
      <point x="1018" y="0"/>
      <point x="1256" y="85"/>
      <point x="1256" y="413" type="curve" smooth="yes"/>
      <point x="1256" y="601"/>
      <point x="1201" y="744"/>
      <point x="990" y="777" type="curve"/>
      <point x="1177.73" y="812.383"/>
      <point x="1207.03" y="946.298"/>
    </contour>
    <contour>
      <point x="365" y="172" type="line"/>
      <point x="365" y="692" type="line"/>
      <point x="639" y="692" type="line" smooth="yes"/>
      <point x="905" y="692"/>
      <point x="1026" y="665"/>
      <point x="1026" y="420" type="curve" smooth="yes"/>
      <point x="1026" y="174"/>
      <point x="803" y="172"/>
      <point x="582" y="172" type="curve" smooth="yes"/>
    </contour>
    <contour>
      <point x="365" y="860" type="line"/>
      <point x="365" y="1292" type="line"/>
      <point x="645.477" y="1292.02" type="line"/>
      <point x="955" y="1292"/>
      <point x="990" y="1243"/>
      <point x="990.227" y="1058.45" type="curve" smooth="yes"/>
      <point x="990.227" y="901.212"/>
      <point x="925.971" y="860"/>
      <point x="650" y="860" type="curve" smooth="yes"/>
    </contour>
    <contour>
      <point x="667.5" y="1464" type="move" name="top"/>
    </contour>
  </outline>
</glyph>
<glyph name="C" format="1">
  <advance width="1414"/>
  <unicode hex="0043"/>
  <outline>
    <contour>
      <point x="779" y="-24" type="curve" smooth="yes"/>
      <point x="1037" y="-24"/>
      <point x="1255" y="76"/>
      <point x="1351" y="354" type="curve"/>
      <point x="1137" y="403" type="line"/>
      <point x="1079" y="258"/>
      <point x="991" y="159"/>
      <point x="769" y="159" type="curve" smooth="yes"/>
      <point x="462" y="159"/>
      <point x="357" y="337"/>
      <point x="357" y="734" type="curve" smooth="yes"/>
      <point x="357" y="1131"/>
      <point x="462" y="1304"/>
      <point x="769" y="1304" type="curve" smooth="yes"/>
      <point x="991" y="1304"/>
      <point x="1079" y="1205"/>
      <point x="1137" y="1061" type="curve"/>
      <point x="1351" y="1110" type="line"/>
      <point x="1255" y="1388"/>
      <point x="1037" y="1488"/>
      <point x="779" y="1488" type="curve" smooth="yes"/>
      <point x="351" y="1488"/>
      <point x="113" y="1265"/>
      <point x="113" y="734" type="curve" smooth="yes"/>
      <point x="113" y="203"/>
      <point x="351" y="-24"/>
    </contour>
    <contour>
      <point x="779" y="0" type="move" name="bot"/>
    </contour>
    <contour>
      <point x="747" y="1464" type="move" name="top"/>
    </contour>
  </outline>
</glyph>
<glyph name="C" format="1">
  <advance width="1394"/>
  <unicode hex="0043"/>
  <outline>
    <contour>
      <point x="98" y="734" type="curve"/>
      <point x="98" y="203"/>
      <point x="336" y="-24"/>
      <point x="758" y="-24" type="curve" smooth="yes"/>
      <point x="1016" y="-24"/>
      <point x="1232" y="79"/>
      <point x="1325" y="355" type="curve"/>
      <point x="1121" y="402" type="line"/>
      <point x="1065" y="253"/>
      <point x="972" y="150"/>
      <point x="749" y="150" type="curve" smooth="yes"/>
      <point x="437" y="150"/>
      <point x="330" y="337"/>
      <point x="330" y="734" type="curve"/>
      <point x="330" y="1131"/>
      <point x="437" y="1313"/>
      <point x="749" y="1313" type="curve" smooth="yes"/>
      <point x="972" y="1313"/>
      <point x="1065" y="1211"/>
      <point x="1121" y="1062" type="curve"/>
      <point x="1325" y="1109" type="line"/>
      <point x="1232" y="1385"/>
      <point x="1016" y="1488"/>
      <point x="758" y="1488" type="curve" smooth="yes"/>
      <point x="336" y="1488"/>
      <point x="98" y="1265"/>
    </contour>
    <contour>
      <point x="755" y="2" type="move" name="bot"/>
    </contour>
    <contour>
      <point x="759" y="1462" type="move" name="top"/>
    </contour>
  </outline>
</glyph>
<glyph name="E" format="1">
  <advance width="1234"/>
  <unicode hex="0045"/>
  <outline>
    <contour>
      <point x="134" y="0" type="line"/>
      <point x="1164" y="0" type="line"/>
      <point x="1164" y="172" type="line"/>
      <point x="365" y="172" type="line"/>
      <point x="365" y="690" type="line"/>
      <point x="1052" y="690" type="line"/>
      <point x="1052" y="866" type="line"/>
      <point x="365" y="866" type="line"/>
      <point x="365" y="1292" type="line"/>
      <point x="1153" y="1292" type="line"/>
      <point x="1153" y="1464" type="line"/>
      <point x="134" y="1464" type="line"/>
    </contour>
    <contour>
      <point x="617" y="0" type="move" name="bot"/>
    </contour>
    <contour>
      <point x="726" y="0" type="move" name="ogonek"/>
    </contour>
    <contour>
      <point x="617" y="1464" type="move" name="top"/>
    </contour>
  </outline>
</glyph>
<glyph name="E" format="1">
  <advance width="1230"/>
  <unicode hex="0045"/>
  <outline>
    <contour>
      <point x="253" y="1464" type="curve"/>
      <point x="1149" y="1464" type="line"/>
      <point x="1149" y="1300" type="line"/>
      <point x="253" y="1300" type="line"/>
      <point x="253" y="1300"/>
      <point x="253" y="1464"/>
    </contour>
    <contour>
      <point x="253" y="694"/>
      <point x="253" y="862"/>
      <point x="253" y="862" type="curve"/>
      <point x="1047" y="862" type="line"/>
      <point x="1047" y="694" type="line"/>
      <point x="253" y="694" type="line"/>
    </contour>
    <contour>
      <point x="1160" y="0" type="line"/>
      <point x="253" y="0" type="line"/>
      <point x="253" y="0"/>
      <point x="253" y="164"/>
      <point x="253" y="164" type="curve"/>
      <point x="1160" y="164" type="line"/>
    </contour>
    <component base="uc_main_stem" xOffset="32"/>
  </outline>
</glyph>
<glyph name="F" format="1">
  <advance width="1208"/>
  <unicode hex="0046"/>
  <outline>
    <contour>
      <point x="134" y="0" type="line"/>
      <point x="365" y="0" type="line"/>
      <point x="365" y="677" type="line"/>
      <point x="1056" y="677" type="line"/>
      <point x="1056" y="853" type="line"/>
      <point x="365" y="853" type="line"/>
      <point x="365" y="1292" type="line"/>
      <point x="1168" y="1292" type="line"/>
      <point x="1168" y="1464" type="line"/>
      <point x="134" y="1464" type="line"/>
    </contour>
  </outline>
</glyph>
<glyph name="F" format="1">
  <advance width="1205"/>
  <unicode hex="0046"/>
  <outline>
    <contour>
      <point x="1162" y="1300" type="line"/>
      <point x="251" y="1300" type="line"/>
      <point x="250" y="1464" type="line"/>
      <point x="1162" y="1464" type="line"/>
    </contour>
    <contour>
      <point x="251" y="850" type="line"/>
      <point x="1050" y="850" type="line"/>
      <point x="1050" y="682" type="line"/>
      <point x="251" y="682" type="line"/>
    </contour>
    <component base="uc_main_stem" xOffset="32"/>
  </outline>
</glyph>
<glyph name="G" format="1">
  <advance width="1433"/>
  <unicode hex="0047"/>
  <outline>
    <contour>
      <point x="749" y="-24" type="curve" smooth="yes"/>
      <point x="933" y="-24"/>
      <point x="1048" y="44"/>
      <point x="1109" y="131" type="curve"/>
      <point x="1156" y="0" type="line"/>
      <point x="1304" y="0" type="line"/>
      <point x="1304" y="0"/>
      <point x="1314" y="428"/>
      <point x="1314" y="581" type="curve" smooth="yes"/>
      <point x="1314" y="829" type="line"/>
      <point x="789" y="829" type="line"/>
      <point x="789" y="632" type="line"/>
      <point x="1086" y="632" type="line"/>
      <point x="1086" y="453" type="line" smooth="yes"/>
      <point x="1086" y="251"/>
      <point x="933" y="159"/>
      <point x="767" y="159" type="curve" smooth="yes"/>
      <point x="497" y="159"/>
      <point x="357" y="316"/>
      <point x="357" y="721" type="curve" smooth="yes"/>
      <point x="357" y="1149"/>
      <point x="455" y="1304"/>
      <point x="753" y="1304" type="curve" smooth="yes"/>
      <point x="941" y="1304"/>
      <point x="1050" y="1220"/>
      <point x="1118" y="1035" type="curve"/>
      <point x="1319" y="1102" type="line"/>
      <point x="1239" y="1343"/>
      <point x="1073" y="1488"/>
      <point x="760" y="1488" type="curve" smooth="yes"/>
      <point x="357" y="1488"/>
      <point x="113" y="1291"/>
      <point x="113" y="722" type="curve" smooth="yes"/>
      <point x="113" y="163"/>
      <point x="393" y="-24"/>
    </contour>
    <contour>
      <point x="716.5" y="0" type="move" name="bot"/>
    </contour>
    <contour>
      <point x="716.5" y="1464" type="move" name="top"/>
    </contour>
  </outline>
</glyph>
<glyph name="G" format="1">
  <advance width="1398"/>
  <unicode hex="0047"/>
  <outline>
    <contour>
      <point x="742" y="1488" type="curve" smooth="yes"/>
      <point x="1046" y="1488"/>
      <point x="1213" y="1347"/>
      <point x="1294" y="1107" type="curve"/>
      <point x="1103" y="1043" type="line"/>
      <point x="1035" y="1227"/>
      <point x="923" y="1313"/>
      <point x="736" y="1313" type="curve" smooth="yes"/>
      <point x="433" y="1313"/>
      <point x="330" y="1149"/>
      <point x="330" y="721" type="curve" smooth="yes"/>
      <point x="330" y="316"/>
      <point x="469" y="150"/>
      <point x="748" y="150" type="curve" smooth="yes"/>
      <point x="914" y="150"/>
      <point x="1074" y="245"/>
      <point x="1074" y="452" type="curve" smooth="yes"/>
      <point x="1074" y="636" type="line"/>
      <point x="767" y="636" type="line"/>
      <point x="767" y="824" type="line"/>
      <point x="1291" y="824" type="line"/>
      <point x="1291" y="581" type="line" smooth="yes"/>
      <point x="1291" y="428"/>
      <point x="1281" y="0"/>
      <point x="1281" y="0" type="curve"/>
      <point x="1139" y="0" type="line"/>
      <point x="1095" y="138" type="line"/>
      <point x="1033" y="46"/>
      <point x="914" y="-24"/>
      <point x="730" y="-24" type="curve" smooth="yes"/>
      <point x="376" y="-24"/>
      <point x="98" y="164"/>
      <point x="98" y="722" type="curve" smooth="yes"/>
      <point x="98" y="1288"/>
      <point x="343" y="1488"/>
    </contour>
  </outline>
</glyph>
<glyph name="H" format="1">
  <advance width="1508"/>
  <unicode hex="0048"/>
  <outline>
    <contour>
      <point x="1261" y="844" type="line"/>
      <point x="1261" y="844"/>
      <point x="1261" y="669"/>
      <point x="1261" y="669" type="curve"/>
      <point x="257" y="669" type="line"/>
      <point x="257" y="669"/>
      <point x="257" y="844"/>
      <point x="257" y="844" type="curve"/>
    </contour>
    <component base="uc_main_stem" xOffset="1048"/>
    <component base="uc_main_stem" xOffset="32"/>
  </outline>
</glyph>
<glyph name="I" format="1">
  <advance width="464"/>
  <unicode hex="0049"/>
  <outline>
    <contour>
      <point x="119" y="0" type="line"/>
      <point x="350" y="0" type="line"/>
      <point x="350" y="1464" type="line"/>
      <point x="119" y="1464" type="line"/>
    </contour>
  </outline>
</glyph>
<glyph name="J" format="1">
  <advance width="1077"/>
  <unicode hex="004A"/>
  <outline>
    <contour>
      <point x="465" y="-19" type="curve" smooth="yes"/>
      <point x="782" y="-19"/>
      <point x="941" y="166"/>
      <point x="941" y="544" type="curve" smooth="yes"/>
      <point x="941" y="1464" type="line"/>
      <point x="710" y="1464" type="line"/>
      <point x="710" y="541" type="line" smooth="yes"/>
      <point x="710" y="270"/>
      <point x="644" y="167"/>
      <point x="470" y="168" type="curve" smooth="yes"/>
      <point x="383" y="168"/>
      <point x="284" y="219"/>
      <point x="246" y="390" type="curve"/>
      <point x="37" y="332" type="line"/>
      <point x="80" y="115"/>
      <point x="234" y="-19"/>
    </contour>
  </outline>
</glyph>
<glyph name="K" format="1">
  <advance width="1284"/>
  <unicode hex="004B"/>
  <outline>
    <contour>
      <point x="680" y="996" type="line"/>
      <point x="1308" y="0" type="line"/>
      <point x="1059" y="0" type="line"/>
      <point x="526" y="847" type="line"/>
    </contour>
    <contour>
      <point x="1254" y="1464" type="line"/>
      <point x="1254" y="1464"/>
      <point x="251" y="430"/>
      <point x="251" y="430" type="curve"/>
      <point x="251" y="430"/>
      <point x="248" y="685"/>
      <point x="248" y="685" type="curve"/>
      <point x="990" y="1464" type="line"/>
    </contour>
    <component base="uc_main_stem" xOffset="32"/>
  </outline>
</glyph>
<glyph name="L" format="1">
  <advance width="1077"/>
  <unicode hex="004C"/>
  <outline>
    <contour>
      <point x="1083" y="0" type="line"/>
      <point x="251" y="0" type="line"/>
      <point x="251" y="0"/>
      <point x="251" y="164"/>
      <point x="251" y="164" type="curve"/>
      <point x="1083" y="164" type="line"/>
    </contour>
    <component base="uc_main_stem" xOffset="32"/>
  </outline>
</glyph>
<glyph name="M" format="1">
  <advance width="1678"/>
  <unicode hex="004D"/>
  <outline>
    <contour>
      <point x="134" y="0" type="line"/>
      <point x="353" y="0" type="line"/>
      <point x="353" y="1179" type="line"/>
      <point x="731" y="250" type="line"/>
      <point x="941" y="250" type="line"/>
      <point x="1333" y="1168" type="line"/>
      <point x="1333" y="0" type="line"/>
      <point x="1545" y="0" type="line"/>
      <point x="1545" y="1464" type="line"/>
      <point x="1242" y="1464" type="line"/>
      <point x="845" y="497" type="line"/>
      <point x="469" y="1464" type="line"/>
      <point x="134" y="1464" type="line"/>
    </contour>
  </outline>
</glyph>
<glyph name="M" format="1">
  <advance width="1675"/>
  <unicode hex="004D"/>
  <outline>
    <contour>
      <point x="136" y="0" type="line"/>
      <point x="136" y="1464" type="line"/>
      <point x="455" y="1464" type="line"/>
      <point x="843" y="485" type="line"/>
      <point x="1251" y="1464" type="line"/>
      <point x="1539" y="1464" type="line"/>
      <point x="1539" y="0" type="line"/>
      <point x="1337" y="0" type="line"/>
      <point x="1337" y="1182" type="line"/>
      <point x="935" y="250" type="line"/>
      <point x="734" y="250" type="line"/>
      <point x="345" y="1192" type="line"/>
      <point x="345" y="0" type="line"/>
    </contour>
  </outline>
</glyph>
<glyph name="N" format="1">
  <advance width="1496"/>
  <unicode hex="004E"/>
  <outline>
    <contour>
      <point x="134" y="0" type="line"/>
      <point x="340" y="0" type="line"/>
      <point x="340" y="1191" type="line"/>
      <point x="1162" y="0" type="line"/>
      <point x="1362" y="0" type="line"/>
      <point x="1362" y="1464" type="line"/>
      <point x="1163" y="1464" type="line"/>
      <point x="1163" y="352" type="line"/>
      <point x="386" y="1464" type="line"/>
      <point x="134" y="1464" type="line"/>
    </contour>
    <contour>
      <point x="748" y="1464" type="move" name="top"/>
    </contour>
    <contour>
      <point x="748" y="0" type="move" name="bot"/>
    </contour>
  </outline>
</glyph>
<glyph name="N" format="1">
  <advance width="1496"/>
  <unicode hex="004E"/>
  <outline>
    <contour>
      <point x="136" y="0" type="line"/>
      <point x="136" y="1464" type="line"/>
      <point x="377" y="1464" type="line"/>
      <point x="1170" y="335" type="line"/>
      <point x="1170" y="1464" type="line"/>
      <point x="1360" y="1464" type="line"/>
      <point x="1360" y="0" type="line"/>
      <point x="1169" y="0" type="line"/>
      <point x="333" y="1204" type="line"/>
      <point x="333" y="0" type="line"/>
    </contour>
  </outline>
</glyph>
<glyph name="O" format="1">
  <advance width="1497"/>
  <unicode hex="004F"/>
  <outline>
    <contour>
      <point x="747" y="1488" type="curve" smooth="yes"/>
      <point x="1137" y="1488"/>
      <point x="1399" y="1291"/>
      <point x="1399" y="741" type="curve" smooth="yes"/>
      <point x="1399" y="183"/>
      <point x="1147" y="-24"/>
      <point x="746" y="-24" type="curve" smooth="yes"/>
      <point x="353" y="-24"/>
      <point x="98" y="176"/>
      <point x="98" y="740" type="curve" smooth="yes"/>
      <point x="98" y="1292"/>
      <point x="358" y="1488"/>
    </contour>
    <contour>
      <point x="747" y="1313" type="curve" smooth="yes"/>
      <point x="417" y="1313"/>
      <point x="330" y="1094"/>
      <point x="330" y="740" type="curve" smooth="yes"/>
      <point x="330" y="339"/>
      <point x="432" y="150"/>
      <point x="747" y="150" type="curve" smooth="yes"/>
      <point x="1068" y="150"/>
      <point x="1167" y="334"/>
      <point x="1167" y="739" type="curve" smooth="yes"/>
      <point x="1167" y="1095"/>
      <point x="1078" y="1313"/>
    </contour>
  </outline>
</glyph>
<glyph name="P" format="1">
  <advance width="1301"/>
  <unicode hex="0050"/>
  <outline>
    <contour>
      <point x="134" y="0" type="line"/>
      <point x="365" y="0" type="line"/>
      <point x="365" y="624" type="line"/>
      <point x="550" y="624" type="line" smooth="yes"/>
      <point x="1062" y="624"/>
      <point x="1249" y="724"/>
      <point x="1249" y="1063" type="curve" smooth="yes"/>
      <point x="1249" y="1360"/>
      <point x="1051" y="1464"/>
      <point x="575" y="1464" type="curve" smooth="yes"/>
      <point x="134" y="1464" type="line"/>
    </contour>
    <contour>
      <point x="365" y="801" type="line"/>
      <point x="365" y="1290" type="line"/>
      <point x="563" y="1290" type="line" smooth="yes"/>
      <point x="850" y="1290"/>
      <point x="1013" y="1280"/>
      <point x="1013" y="1055" type="curve" smooth="yes"/>
      <point x="1013" y="833"/>
      <point x="891" y="801"/>
      <point x="583" y="801" type="curve" smooth="yes"/>
    </contour>
  </outline>
</glyph>
<glyph name="P" format="1">
  <advance width="1295"/>
  <unicode hex="0050"/>
  <outline>
    <contour>
      <point x="246" y="1464" type="curve"/>
      <point x="570" y="1464" type="line" smooth="yes"/>
      <point x="1046" y="1464"/>
      <point x="1241" y="1360"/>
      <point x="1241" y="1063" type="curve" smooth="yes"/>
      <point x="1241" y="724"/>
      <point x="1053" y="625"/>
      <point x="541" y="625" type="curve" smooth="yes"/>
      <point x="246" y="625" type="line"/>
      <point x="246" y="625"/>
      <point x="246" y="794"/>
      <point x="246" y="794" type="curve"/>
      <point x="577" y="794" type="line" smooth="yes"/>
      <point x="892" y="794"/>
      <point x="1017" y="830"/>
      <point x="1017" y="1055" type="curve" smooth="yes"/>
      <point x="1017" y="1283"/>
      <point x="856" y="1298"/>
      <point x="557" y="1298" type="curve" smooth="yes"/>
      <point x="246" y="1298" type="line"/>
      <point x="246" y="1298"/>
      <point x="246" y="1464"/>
    </contour>
    <component base="uc_main_stem" xOffset="32"/>
  </outline>
</glyph>
<glyph name="Q" format="1">
  <advance width="1530"/>
  <unicode hex="0051"/>
  <outline>
    <contour>
      <point x="1274" y="-364" type="line"/>
      <point x="972" y="80" type="line"/>
      <point x="1117" y="179" type="line"/>
      <point x="1437" y="-243" type="line"/>
    </contour>
    <component base="O"/>
  </outline>
</glyph>
<glyph name="R" format="1">
  <advance width="1346"/>
  <unicode hex="0052"/>
  <outline>
    <contour>
      <point x="134" y="0" type="line"/>
      <point x="365" y="0" type="line"/>
      <point x="365" y="660" type="line"/>
      <point x="717" y="660" type="line"/>
      <point x="1049" y="0" type="line"/>
      <point x="1298" y="0" type="line"/>
      <point x="948" y="692" type="line"/>
      <point x="1142" y="732"/>
      <point x="1262" y="877"/>
      <point x="1262" y="1074" type="curve" smooth="yes"/>
      <point x="1262" y="1336"/>
      <point x="1105" y="1464"/>
      <point x="718" y="1464" type="curve" smooth="yes"/>
      <point x="134" y="1464" type="line"/>
    </contour>
    <contour>
      <point x="365" y="834" type="line"/>
      <point x="365" y="1290" type="line"/>
      <point x="709" y="1290" type="line" smooth="yes"/>
      <point x="910" y="1290"/>
      <point x="1026" y="1250"/>
      <point x="1026" y="1072" type="curve" smooth="yes"/>
      <point x="1026" y="881"/>
      <point x="891" y="834"/>
      <point x="677" y="834" type="curve" smooth="yes"/>
    </contour>
    <contour>
      <point x="673" y="0" type="move" name="bot"/>
    </contour>
    <contour>
      <point x="673" y="1464" type="move" name="top"/>
    </contour>
  </outline>
</glyph>
<glyph name="S" format="1">
  <advance width="1238"/>
  <unicode hex="0053"/>
  <outline>
    <contour>
      <point x="621" y="-25" type="curve" smooth="yes"/>
      <point x="986" y="-25"/>
      <point x="1170" y="117"/>
      <point x="1170" y="393" type="curve" smooth="yes"/>
      <point x="1170" y="681"/>
      <point x="1003" y="784"/>
      <point x="735" y="872" type="curve" smooth="yes"/>
      <point x="452" y="964"/>
      <point x="343" y="971"/>
      <point x="343" y="1139" type="curve" smooth="yes"/>
      <point x="343" y="1247"/>
      <point x="442" y="1307"/>
      <point x="650" y="1307" type="curve" smooth="yes"/>
      <point x="793" y="1307"/>
      <point x="877" y="1255"/>
      <point x="963" y="1117" type="curve"/>
      <point x="1122" y="1240" type="line"/>
      <point x="995" y="1427"/>
      <point x="871" y="1491"/>
      <point x="624" y="1491" type="curve" smooth="yes"/>
      <point x="270" y="1491"/>
      <point x="103" y="1364"/>
      <point x="103" y="1125" type="curve" smooth="yes"/>
      <point x="103" y="848"/>
      <point x="292" y="785"/>
      <point x="574" y="694" type="curve" smooth="yes"/>
      <point x="857" y="602"/>
      <point x="928" y="569"/>
      <point x="930" y="386" type="curve" smooth="yes"/>
      <point x="931" y="243"/>
      <point x="842" y="161"/>
      <point x="641" y="161" type="curve" smooth="yes"/>
      <point x="415" y="161"/>
      <point x="318" y="235"/>
      <point x="246" y="458" type="curve"/>
      <point x="51" y="373" type="line"/>
      <point x="98" y="117"/>
      <point x="280" y="-25"/>
    </contour>
    <contour>
      <point x="619" y="0" type="move" name="bot"/>
    </contour>
    <contour>
      <point x="619" y="1464" type="move" name="top"/>
    </contour>
  </outline>
</glyph>
<glyph name="S" format="1">
  <advance width="1216"/>
  <unicode hex="0053"/>
  <outline>
    <contour>
      <point x="618" y="1491" type="curve" smooth="yes"/>
      <point x="850" y="1491"/>
      <point x="1003" y="1424"/>
      <point x="1127" y="1240" type="curve"/>
      <point x="965" y="1123" type="line"/>
      <point x="885" y="1253"/>
      <point x="779" y="1316"/>
      <point x="643" y="1316" type="curve" smooth="yes"/>
      <point x="438" y="1316"/>
      <point x="330" y="1256"/>
      <point x="330" y="1139" type="curve" smooth="yes"/>
      <point x="330" y="966"/>
      <point x="452" y="951"/>
      <point x="727" y="866" type="curve" smooth="yes"/>
      <point x="1012" y="778"/>
      <point x="1188" y="676"/>
      <point x="1188" y="393" type="curve" smooth="yes"/>
      <point x="1188" y="116"/>
      <point x="965" y="-25"/>
      <point x="615" y="-25" type="curve" smooth="yes"/>
      <point x="390" y="-25"/>
      <point x="101" y="69"/>
      <point x="45" y="373" type="curve"/>
      <point x="230" y="454" type="line"/>
      <point x="297" y="238"/>
      <point x="414" y="152"/>
      <point x="634" y="152" type="curve" smooth="yes"/>
      <point x="796" y="152"/>
      <point x="960" y="193"/>
      <point x="959" y="386" type="curve" smooth="yes"/>
      <point x="958" y="571"/>
      <point x="870" y="606"/>
      <point x="567" y="699" type="curve" smooth="yes"/>
      <point x="291" y="784"/>
      <point x="101" y="852"/>
      <point x="101" y="1125" type="curve" smooth="yes"/>
      <point x="101" y="1380"/>
      <point x="352" y="1491"/>
    </contour>
  </outline>
</glyph>
<glyph name="V" format="1">
  <advance width="1164"/>
  <unicode hex="0056"/>
  <outline>
    <contour>
      <point x="472" y="0" type="line"/>
      <point x="694" y="0" type="line"/>
      <point x="1179" y="1464" type="line"/>
      <point x="951" y="1464" type="line"/>
      <point x="589" y="301" type="line"/>
      <point x="226" y="1464" type="line"/>
      <point x="-14" y="1464" type="line"/>
    </contour>
  </outline>
</glyph>
<glyph name="V" format="1">
  <advance width="1164"/>
  <unicode hex="0056"/>
  <outline>
    <contour>
      <point x="472" y="0" type="line"/>
      <point x="694" y="0" type="line"/>
      <point x="1179" y="1464" type="line"/>
      <point x="951" y="1464" type="line"/>
      <point x="589" y="301" type="line"/>
      <point x="226" y="1464" type="line"/>
      <point x="-14" y="1464" type="line"/>
    </contour>
  </outline>
</glyph>
<glyph name="W" format="1">
  <advance width="1877"/>
  <unicode hex="0057"/>
  <outline>
    <contour>
      <point x="414" y="0" type="line"/>
      <point x="592" y="0" type="line"/>
      <point x="941" y="1019" type="line"/>
      <point x="1236" y="0" type="line"/>
      <point x="1434" y="0" type="line"/>
      <point x="1880" y="1464" type="line"/>
      <point x="1661" y="1464" type="line"/>
      <point x="1349" y="341" type="line"/>
      <point x="1038" y="1464" type="line"/>
      <point x="876" y="1464" type="line"/>
      <point x="513" y="369" type="line"/>
      <point x="238" y="1464" type="line"/>
      <point x="-3" y="1464" type="line"/>
    </contour>
    <contour>
      <point x="938.5" y="0" type="move" name="bot"/>
    </contour>
    <contour>
      <point x="938.5" y="1464" type="move" name="top"/>
    </contour>
  </outline>
</glyph>
<glyph name="X" format="1">
  <advance width="1245"/>
  <unicode hex="0058"/>
  <outline>
    <contour>
      <point x="1283" y="0" type="curve"/>
      <point x="1023" y="0" type="line"/>
      <point x="1023" y="0"/>
      <point x="8" y="1464"/>
      <point x="8" y="1464" type="curve"/>
      <point x="270" y="1464" type="line"/>
      <point x="270" y="1464"/>
      <point x="1283" y="0"/>
    </contour>
    <contour>
      <point x="604" y="907" type="curve"/>
      <point x="993" y="1464" type="line"/>
      <point x="1242" y="1464" type="line"/>
      <point x="735" y="744" type="line"/>
      <point x="735" y="744"/>
      <point x="645" y="614"/>
      <point x="645" y="614" type="curve"/>
      <point x="219" y="0" type="line"/>
      <point x="-31" y="0" type="line"/>
      <point x="514" y="777" type="line"/>
      <point x="514" y="777"/>
      <point x="604" y="907"/>
    </contour>
  </outline>
</glyph>
<glyph name="Y" format="1">
  <advance width="1162"/>
  <unicode hex="0059"/>
  <outline>
    <contour>
      <point x="469" y="549" type="line"/>
      <point x="-34" y="1464" type="line"/>
      <point x="202" y="1464" type="line"/>
      <point x="580" y="747" type="line"/>
      <point x="951" y="1464" type="line"/>
      <point x="1186" y="1464" type="line"/>
      <point x="687" y="548" type="line"/>
      <point x="687" y="0" type="line"/>
      <point x="469" y="0" type="line"/>
    </contour>
  </outline>
</glyph>
<glyph name="Z" format="1">
  <advance width="1176"/>
  <unicode hex="005A"/>
  <outline>
    <contour>
      <point x="41" y="0" type="line"/>
      <point x="1134" y="0" type="line"/>
      <point x="1141" y="173" type="line"/>
      <point x="335" y="173" type="line"/>
      <point x="1137" y="1318" type="line"/>
      <point x="1137" y="1464" type="line"/>
      <point x="124" y="1464" type="line"/>
      <point x="124" y="1290" type="line"/>
      <point x="839" y="1290" type="line"/>
      <point x="41" y="156" type="line"/>
    </contour>
    <contour>
      <point x="588" y="0" type="move" name="bot"/>
    </contour>
    <contour>
      <point x="588" y="1464" type="move" name="top"/>
    </contour>
  </outline>
</glyph>
<glyph name="bracketleft" format="1">
  <advance width="708"/>
  <unicode hex="005B"/>
  <outline>
    <contour>
      <point x="132" y="-52" type="line"/>
      <point x="132" y="1480" type="line"/>
      <point x="620" y="1480" type="line"/>
      <point x="620" y="1320" type="line"/>
      <point x="352" y="1320" type="line"/>
      <point x="352" y="110" type="line"/>
      <point x="620" y="110" type="line"/>
      <point x="620" y="-52" type="line"/>
    </contour>
  </outline>
</glyph>
<glyph name="bracketright" format="1">
  <advance width="708"/>
  <unicode hex="005D"/>
  <outline>
    <contour>
      <point x="132" y="1320" type="line"/>
      <point x="132" y="1480" type="line"/>
      <point x="620" y="1480" type="line"/>
      <point x="620" y="-52" type="line"/>
      <point x="132" y="-52" type="line"/>
      <point x="132" y="110" type="line"/>
      <point x="400" y="110" type="line"/>
      <point x="400" y="1320" type="line"/>
    </contour>
  </outline>
</glyph>
<glyph name="underscore" format="1">
  <advance width="870"/>
  <unicode hex="005F"/>
  <outline>
    <contour>
      <point x="99" y="-1" type="line"/>
      <point x="750" y="-1" type="line"/>
      <point x="750" y="-147" type="line"/>
      <point x="99" y="-147" type="line"/>
    </contour>
  </outline>
</glyph>
<glyph name="grave" format="1">
  <advance width="496"/>
  <unicode hex="0060"/>
  <outline>
    <contour>
      <point x="-5" y="1492" type="line"/>
      <point x="285" y="1492" type="line"/>
      <point x="487" y="1172" type="line"/>
      <point x="346" y="1172" type="line"/>
    </contour>
  </outline>
</glyph>
<glyph name="a" format="1">
  <advance width="1004"/>
  <unicode hex="0061"/>
  <outline>
    <contour>
      <point x="688" y="259" type="line"/>
      <point x="618" y="179"/>
      <point x="538" y="121"/>
      <point x="417" y="121" type="curve" smooth="yes"/>
      <point x="300" y="121"/>
      <point x="269" y="176"/>
      <point x="267" y="257" type="curve" smooth="yes"/>
      <point x="264" y="369"/>
      <point x="323" y="401"/>
      <point x="555" y="445" type="curve" smooth="yes"/>
      <point x="688" y="470" type="line"/>
    </contour>
    <contour>
      <point x="718" y="0" type="line"/>
      <point x="900" y="0" type="line"/>
      <point x="900" y="680" type="line" smooth="yes"/>
      <point x="900" y="934"/>
      <point x="743" y="1047"/>
      <point x="499" y="1047" type="curve" smooth="yes"/>
      <point x="323" y="1047"/>
      <point x="213" y="1003"/>
      <point x="99" y="921" type="curve"/>
      <point x="99" y="921"/>
      <point x="182" y="796"/>
      <point x="182" y="795" type="curve"/>
      <point x="269" y="853"/>
      <point x="349" y="896"/>
      <point x="491" y="896" type="curve" smooth="yes"/>
      <point x="662" y="896"/>
      <point x="688" y="821"/>
      <point x="688" y="642" type="curve" smooth="yes"/>
      <point x="688" y="601" type="line"/>
      <point x="569" y="582" type="line" smooth="yes"/>
      <point x="284" y="537"/>
      <point x="70" y="501"/>
      <point x="70" y="245" type="curve" smooth="yes"/>
      <point x="70" y="68"/>
      <point x="207" y="-24"/>
      <point x="389" y="-24" type="curve" smooth="yes"/>
      <point x="522" y="-24"/>
      <point x="632" y="25"/>
      <point x="700" y="120" type="curve"/>
    </contour>
  </outline>
</glyph>
<glyph name="b" format="1">
  <advance width="1140"/>
  <unicode hex="0062"/>
  <outline>
    <contour>
      <point x="609" y="-24" type="curve" smooth="yes"/>
      <point x="892" y="-24"/>
      <point x="1052" y="169"/>
      <point x="1052" y="521" type="curve" smooth="yes"/>
      <point x="1052" y="868"/>
      <point x="870" y="1047"/>
      <point x="608" y="1047" type="curve"/>
      <point x="368" y="1047"/>
      <point x="246" y="843"/>
      <point x="223" y="646" type="curve"/>
      <point x="223" y="351" type="line"/>
      <point x="244" y="117"/>
      <point x="385" y="-24"/>
    </contour>
    <contour>
      <point x="594" y="126" type="curve" smooth="yes"/>
      <point x="362" y="126"/>
      <point x="318" y="275"/>
      <point x="318" y="522" type="curve" smooth="yes"/>
      <point x="318" y="834"/>
      <point x="465" y="897"/>
      <point x="595" y="897" type="curve" smooth="yes"/>
      <point x="760" y="897"/>
      <point x="835" y="761"/>
      <point x="835" y="518" type="curve" smooth="yes"/>
      <point x="835" y="254"/>
      <point x="766" y="126"/>
    </contour>
    <component base="lc_ascender_stem_2" xOffset="26"/>
  </outline>
</glyph>
<glyph name="c" format="1">
  <advance width="1012"/>
  <unicode hex="0063"/>
  <outline>
    <contour>
      <point x="540" y="-24" type="curve" smooth="yes"/>
      <point x="738" y="-24"/>
      <point x="900" y="47"/>
      <point x="956" y="297" type="curve"/>
      <point x="788" y="348" type="line"/>
      <point x="751" y="192"/>
      <point x="675" y="127"/>
      <point x="548" y="127" type="curve" smooth="yes"/>
      <point x="398" y="127"/>
      <point x="305" y="249"/>
      <point x="305" y="514" type="curve"/>
      <point x="305" y="769"/>
      <point x="395" y="896"/>
      <point x="548" y="896" type="curve" smooth="yes"/>
      <point x="673" y="896"/>
      <point x="745" y="832"/>
      <point x="783" y="682" type="curve"/>
      <point x="958" y="725" type="line"/>
      <point x="902" y="970"/>
      <point x="739" y="1047"/>
      <point x="541" y="1047" type="curve" smooth="yes"/>
      <point x="245" y="1047"/>
      <point x="88" y="819"/>
      <point x="88" y="511" type="curve"/>
      <point x="88" y="203"/>
      <point x="244" y="-24"/>
    </contour>
  </outline>
</glyph>
<glyph name="d" format="1">
  <advance width="1160"/>
  <unicode hex="0064"/>
  <outline>
    <contour>
      <point x="539" y="-24" type="curve" smooth="yes"/>
      <point x="678" y="-24"/>
      <point x="788" y="32"/>
      <point x="856" y="134" type="curve"/>
      <point x="865" y="5" type="line"/>
      <point x="1036" y="5" type="line"/>
      <point x="1036" y="1479" type="line"/>
      <point x="814" y="1479" type="line"/>
      <point x="814" y="922" type="line"/>
      <point x="752" y="997"/>
      <point x="664" y="1047"/>
      <point x="543" y="1047" type="curve" smooth="yes"/>
      <point x="279" y="1047"/>
      <point x="87" y="876"/>
      <point x="87" y="526" type="curve" smooth="yes"/>
      <point x="87" y="168"/>
      <point x="253" y="-24"/>
    </contour>
    <contour>
      <point x="555" y="133" type="curve" smooth="yes"/>
      <point x="379" y="142"/>
      <point x="314" y="264"/>
      <point x="314" y="524" type="curve" smooth="yes"/>
      <point x="314" y="766"/>
      <point x="386" y="882"/>
      <point x="550" y="890" type="curve" smooth="yes"/>
      <point x="672" y="896"/>
      <point x="824" y="833"/>
      <point x="824" y="522" type="curve" smooth="yes"/>
      <point x="824" y="304"/>
      <point x="773" y="122"/>
    </contour>
    <contour>
      <point x="580" y="1023" type="move" name="mid"/>
    </contour>
    <contour>
      <point x="933" y="1023" type="move" name="caron.alt"/>
    </contour>
    <contour>
      <point x="580" y="1023" type="move" name="top"/>
    </contour>
  </outline>
</glyph>
<glyph name="e" format="1">
  <advance width="1038"/>
  <unicode hex="0065"/>
  <outline>
    <contour>
      <point x="543" y="1047" type="curve" smooth="yes"/>
      <point x="828" y="1047"/>
      <point x="961" y="841"/>
      <point x="961" y="568" type="curve" smooth="yes"/>
      <point x="961" y="559"/>
      <point x="960" y="485"/>
      <point x="958" y="468" type="curve"/>
      <point x="300" y="468" type="line"/>
      <point x="303" y="304"/>
      <point x="365" y="127"/>
      <point x="549" y="127" type="curve" smooth="yes"/>
      <point x="687" y="127"/>
      <point x="749" y="212"/>
      <point x="784" y="307" type="curve" smooth="yes"/>
      <point x="784" y="308"/>
      <point x="943" y="272"/>
      <point x="943" y="272" type="curve"/>
      <point x="896" y="94"/>
      <point x="749" y="-24"/>
      <point x="552" y="-24" type="curve"/>
      <point x="229" y="-24"/>
      <point x="88" y="217"/>
      <point x="88" y="512" type="curve" smooth="yes"/>
      <point x="88" y="843"/>
      <point x="254" y="1047"/>
    </contour>
    <contour>
      <point x="762" y="607" type="line"/>
      <point x="762" y="796"/>
      <point x="701" y="896"/>
      <point x="539" y="896" type="curve" smooth="yes"/>
      <point x="358" y="896"/>
      <point x="305" y="721"/>
      <point x="300" y="607" type="curve"/>
    </contour>
  </outline>
</glyph>
<glyph name="f" format="1">
  <advance width="643"/>
  <unicode hex="0066"/>
  <outline>
    <contour>
      <point x="192" y="0" type="line"/>
      <point x="414" y="0" type="line"/>
      <point x="414" y="861" type="line"/>
      <point x="633" y="861" type="line"/>
      <point x="633" y="1023" type="line"/>
      <point x="414" y="1023" type="line"/>
      <point x="413" y="1143" type="line" smooth="yes"/>
      <point x="412.969" y="1147.28"/>
      <point x="412.952" y="1151.45"/>
      <point x="412.952" y="1155.51" type="curve" smooth="yes"/>
      <point x="412.952" y="1280.55"/>
      <point x="428.705" y="1304"/>
      <point x="512" y="1304" type="curve" smooth="yes"/>
      <point x="542" y="1304"/>
      <point x="584" y="1292"/>
      <point x="617" y="1275" type="curve"/>
      <point x="673" y="1423" type="line"/>
      <point x="627" y="1448"/>
      <point x="541" y="1474"/>
      <point x="485" y="1474" type="curve" smooth="yes"/>
      <point x="304" y="1474"/>
      <point x="192" y="1425"/>
      <point x="192" y="1134" type="curve" smooth="yes"/>
      <point x="192" y="1023" type="line"/>
      <point x="17" y="1023" type="line"/>
      <point x="17" y="861" type="line"/>
      <point x="192" y="861" type="line"/>
    </contour>
    <contour>
      <point x="321" y="1330" type="move" name="top"/>
    </contour>
  </outline>
</glyph>
<glyph name="g" format="1">
  <advance width="1094"/>
  <unicode hex="0067"/>
  <outline>
    <contour>
      <point x="518" y="-476" type="curve" smooth="yes"/>
      <point x="802" y="-476"/>
      <point x="997" y="-331"/>
      <point x="997" y="24" type="curve" smooth="yes"/>
      <point x="997" y="1023" type="line"/>
      <point x="816" y="1023" type="line"/>
      <point x="786" y="811" type="line"/>
      <point x="785" y="28" type="line" smooth="yes"/>
      <point x="785" y="-187"/>
      <point x="727" y="-314"/>
      <point x="521" y="-317" type="curve" smooth="yes"/>
      <point x="364" y="-319"/>
      <point x="278" y="-257"/>
      <point x="216" y="-178" type="curve"/>
      <point x="101" y="-296" type="line"/>
      <point x="179" y="-393"/>
      <point x="332" y="-476"/>
    </contour>
    <contour>
      <point x="497" y="-24" type="curve" smooth="yes"/>
      <point x="721" y="-24"/>
      <point x="860" y="117"/>
      <point x="881" y="351" type="curve"/>
      <point x="881" y="646" type="line"/>
      <point x="858" y="843"/>
      <point x="736" y="1047"/>
      <point x="496" y="1047" type="curve"/>
      <point x="234" y="1047"/>
      <point x="42" y="864"/>
      <point x="42" y="521" type="curve" smooth="yes"/>
      <point x="42" y="179"/>
      <point x="214" y="-24"/>
    </contour>
    <contour>
      <point x="510" y="126" type="curve" smooth="yes"/>
      <point x="339" y="126"/>
      <point x="258" y="257"/>
      <point x="257" y="520" type="curve" smooth="yes"/>
      <point x="256" y="758"/>
      <point x="349" y="897"/>
      <point x="509" y="897" type="curve" smooth="yes"/>
      <point x="639" y="897"/>
      <point x="786" y="834"/>
      <point x="786" y="522" type="curve" smooth="yes"/>
      <point x="786" y="275"/>
      <point x="742" y="126"/>
    </contour>
  </outline>
</glyph>
<glyph name="j" format="1">
  <advance width="513"/>
  <unicode hex="006A"/>
  <outline>
    <contour>
      <point x="134" y="-380" type="curve" smooth="yes"/>
      <point x="323" y="-380"/>
      <point x="407" y="-304"/>
      <point x="407" y="-42" type="curve" smooth="yes"/>
      <point x="407" y="1023" type="line"/>
      <point x="195" y="1023" type="line"/>
      <point x="195" y="-91" type="line" smooth="yes"/>
      <point x="195" y="-177"/>
      <point x="155" y="-207"/>
      <point x="100" y="-207" type="curve" smooth="yes"/>
      <point x="64" y="-207"/>
      <point x="22" y="-195"/>
      <point x="-20" y="-176" type="curve"/>
      <point x="-61" y="-334" type="line"/>
      <point x="-13" y="-362"/>
      <point x="63" y="-380"/>
    </contour>
    <contour>
      <point x="197" y="1188" type="line"/>
      <point x="408" y="1188" type="line"/>
      <point x="408" y="1421" type="line"/>
      <point x="197" y="1421" type="line"/>
    </contour>
  </outline>
</glyph>
<glyph name="k" format="1">
  <advance width="1052"/>
  <unicode hex="006B"/>
  <outline>
    <contour>
      <point x="233" y="245" type="curve"/>
      <point x="233" y="245"/>
      <point x="1042" y="1023"/>
      <point x="1042" y="1023" type="curve"/>
      <point x="803" y="1023" type="line"/>
      <point x="233" y="468" type="line"/>
      <point x="233" y="468"/>
      <point x="233" y="245"/>
    </contour>
    <contour>
      <point x="823" y="0" type="line"/>
      <point x="1062" y="0" type="line"/>
      <point x="596" y="698" type="line"/>
      <point x="455" y="569" type="line"/>
    </contour>
    <component base="lc_ascender_stem" xOffset="15"/>
  </outline>
</glyph>
<glyph name="l" format="1">
  <advance width="495"/>
  <unicode hex="006C"/>
  <outline>
    <contour>
      <point x="140" y="0" type="line"/>
      <point x="362" y="0" type="line"/>
      <point x="362" y="1474" type="line"/>
      <point x="140" y="1474" type="line"/>
    </contour>
    <contour>
      <point x="357" y="1023" type="move" name="caron.alt"/>
    </contour>
    <contour>
      <point x="248" y="1464" type="move" name="top"/>
    </contour>
    <contour>
      <point x="248" y="822" type="move" name="mid"/>
    </contour>
    <contour>
      <point x="247.5" y="0" type="move" name="bot"/>
    </contour>
  </outline>
</glyph>
<glyph name="m" format="1">
  <advance width="1795"/>
  <unicode hex="006D"/>
  <outline>
    <contour>
      <point x="1483" y="0" type="line"/>
      <point x="1695" y="0" type="line"/>
      <point x="1695" y="595" type="line" smooth="yes"/>
      <point x="1695" y="801"/>
      <point x="1654" y="1047"/>
      <point x="1331" y="1047" type="curve" smooth="yes"/>
      <point x="1078" y="1047"/>
      <point x="949" y="899"/>
      <point x="915" y="624" type="curve"/>
      <point x="915" y="624"/>
      <point x="1010" y="497"/>
      <point x="1010" y="497" type="curve" smooth="yes"/>
      <point x="1010" y="701"/>
      <point x="1062" y="897"/>
      <point x="1285" y="897" type="curve" smooth="yes"/>
      <point x="1433" y="897"/>
      <point x="1483" y="801"/>
      <point x="1483" y="602" type="curve" smooth="yes"/>
    </contour>
    <contour>
      <point x="798" y="0" type="line"/>
      <point x="1010" y="0" type="line"/>
      <point x="1010" y="595" type="line" smooth="yes"/>
      <point x="1010" y="807"/>
      <point x="969" y="1047"/>
      <point x="646" y="1047" type="curve" smooth="yes"/>
      <point x="393" y="1047"/>
      <point x="274" y="884"/>
      <point x="224" y="624" type="curve"/>
      <point x="224" y="624"/>
      <point x="325" y="491"/>
      <point x="325" y="491" type="curve" smooth="yes"/>
      <point x="325" y="695"/>
      <point x="381" y="897"/>
      <point x="600" y="897" type="curve" smooth="yes"/>
      <point x="748" y="897"/>
      <point x="798" y="801"/>
      <point x="798" y="602" type="curve" smooth="yes"/>
    </contour>
    <component base="lc_main_stem" xOffset="15"/>
  </outline>
</glyph>
<glyph name="n" format="1">
  <advance width="1111"/>
  <unicode hex="006E"/>
  <outline>
    <contour>
      <point x="798" y="0" type="line"/>
      <point x="1010" y="0" type="line"/>
      <point x="1010" y="595" type="line" smooth="yes"/>
      <point x="1010" y="801"/>
      <point x="969" y="1047"/>
      <point x="646" y="1047" type="curve" smooth="yes"/>
      <point x="393" y="1047"/>
      <point x="272" y="884"/>
      <point x="224" y="624" type="curve"/>
      <point x="224" y="624"/>
      <point x="325" y="491"/>
      <point x="325" y="491" type="curve" smooth="yes"/>
      <point x="325" y="685"/>
      <point x="386" y="897"/>
      <point x="605" y="897" type="curve" smooth="yes"/>
      <point x="753" y="897"/>
      <point x="798" y="796"/>
      <point x="798" y="597" type="curve" smooth="yes"/>
    </contour>
    <component base="lc_main_stem" xOffset="15"/>
  </outline>
</glyph>
<glyph name="o" format="1">
  <advance width="1108"/>
  <unicode hex="006F"/>
  <outline>
    <contour>
      <point x="554" y="133" type="curve" smooth="yes"/>
      <point x="352" y="133"/>
      <point x="314" y="325"/>
      <point x="314" y="512" type="curve" smooth="yes"/>
      <point x="314" y="699"/>
      <point x="352" y="890"/>
      <point x="554" y="890" type="curve" smooth="yes"/>
      <point x="756" y="890"/>
      <point x="794" y="699"/>
      <point x="794" y="512" type="curve" smooth="yes"/>
      <point x="794" y="325"/>
      <point x="756" y="133"/>
    </contour>
    <contour>
      <point x="554" y="-24" type="curve" smooth="yes"/>
      <point x="843" y="-24"/>
      <point x="1021" y="158"/>
      <point x="1021" y="512" type="curve" smooth="yes"/>
      <point x="1021" y="867"/>
      <point x="843" y="1047"/>
      <point x="554" y="1047" type="curve" smooth="yes"/>
      <point x="265" y="1047"/>
      <point x="86" y="867"/>
      <point x="86" y="512" type="curve" smooth="yes"/>
      <point x="86" y="158"/>
      <point x="265" y="-24"/>
    </contour>
    <contour>
      <point x="554" y="0" type="move" name="bot"/>
    </contour>
    <contour>
      <point x="554" y="1023" type="move" name="top"/>
    </contour>
    <contour>
      <point x="597" y="0" type="move" name="ogonek"/>
    </contour>
  </outline>
</glyph>
<glyph name="p" format="1">
  <advance width="1168"/>
  <unicode hex="0070"/>
  <outline>
    <contour>
      <point x="123" y="-373" type="line"/>
      <point x="346" y="-373" type="line"/>
      <point x="346" y="93" type="line"/>
      <point x="414" y="17"/>
      <point x="513" y="-24"/>
      <point x="634" y="-24" type="curve" smooth="yes"/>
      <point x="920" y="-24"/>
      <point x="1082" y="166"/>
      <point x="1082" y="524" type="curve" smooth="yes"/>
      <point x="1082" y="870"/>
      <point x="897" y="1047"/>
      <point x="633" y="1047" type="curve" smooth="yes"/>
      <point x="495" y="1047"/>
      <point x="396" y="979"/>
      <point x="333" y="887" type="curve"/>
      <point x="319" y="1023" type="line"/>
      <point x="123" y="1023" type="line"/>
    </contour>
    <contour>
      <point x="617" y="133" type="curve" smooth="yes"/>
      <point x="383" y="133"/>
      <point x="346" y="288"/>
      <point x="346" y="519" type="curve" smooth="yes"/>
      <point x="345" y="836"/>
      <point x="497" y="890"/>
      <point x="619" y="890" type="curve" smooth="yes"/>
      <point x="782" y="890"/>
      <point x="854" y="757"/>
      <point x="854" y="519" type="curve" smooth="yes"/>
      <point x="854" y="258"/>
      <point x="789" y="133"/>
    </contour>
  </outline>
</glyph>
<glyph name="q" format="1">
  <advance width="1165"/>
  <unicode hex="0071"/>
  <outline>
    <contour>
      <point x="822" y="-350" type="line"/>
      <point x="1045" y="-350" type="line"/>
      <point x="1045" y="1023" type="line"/>
      <point x="849" y="1023" type="line"/>
      <point x="835" y="887" type="line"/>
      <point x="772" y="979"/>
      <point x="673" y="1047"/>
      <point x="535" y="1047" type="curve" smooth="yes"/>
      <point x="271" y="1047"/>
      <point x="86" y="870"/>
      <point x="86" y="524" type="curve" smooth="yes"/>
      <point x="86" y="166"/>
      <point x="248" y="-24"/>
      <point x="534" y="-24" type="curve" smooth="yes"/>
      <point x="655" y="-24"/>
      <point x="754" y="17"/>
      <point x="822" y="93" type="curve"/>
    </contour>
    <contour>
      <point x="551" y="133" type="curve" smooth="yes"/>
      <point x="379" y="133"/>
      <point x="314" y="258"/>
      <point x="314" y="519" type="curve" smooth="yes"/>
      <point x="314" y="757"/>
      <point x="386" y="890"/>
      <point x="549" y="890" type="curve" smooth="yes"/>
      <point x="670" y="890"/>
      <point x="822" y="835"/>
      <point x="822" y="527" type="curve" smooth="yes"/>
      <point x="822" y="287"/>
      <point x="785" y="133"/>
    </contour>
  </outline>
</glyph>
<glyph name="r" format="1">
  <advance width="647"/>
  <unicode hex="0072"/>
  <outline>
    <contour>
      <point x="328" y="502" type="curve" smooth="yes"/>
      <point x="328" y="687"/>
      <point x="411" y="847"/>
      <point x="630" y="847" type="curve"/>
      <point x="630" y="1035" type="line"/>
      <point x="430" y="1035"/>
      <point x="300" y="913"/>
      <point x="235" y="609" type="curve"/>
      <point x="235" y="609"/>
      <point x="328" y="502"/>
    </contour>
    <component base="lc_main_stem" xOffset="18"/>
  </outline>
</glyph>
<glyph name="s" format="1">
  <advance width="931"/>
  <unicode hex="0073"/>
  <outline>
    <contour>
      <point x="853" y="849" type="curve"/>
      <point x="853" y="849"/>
      <point x="723" y="775"/>
      <point x="723" y="774" type="curve"/>
      <point x="669" y="870"/>
      <point x="616" y="897"/>
      <point x="490" y="897" type="curve" smooth="yes"/>
      <point x="332" y="897"/>
      <point x="293" y="858"/>
      <point x="290" y="761" type="curve" smooth="yes"/>
      <point x="287" y="661"/>
      <point x="338" y="645"/>
      <point x="502" y="608" type="curve" smooth="yes"/>
      <point x="768" y="548"/>
      <point x="866" y="484"/>
      <point x="866" y="286" type="curve" smooth="yes"/>
      <point x="866" y="86"/>
      <point x="754" y="-24"/>
      <point x="463" y="-24" type="curve" smooth="yes"/>
      <point x="280" y="-24"/>
      <point x="115" y="33"/>
      <point x="63" y="224" type="curve"/>
      <point x="218" y="288" type="line"/>
      <point x="268" y="160"/>
      <point x="315" y="126"/>
      <point x="478" y="126" type="curve" smooth="yes"/>
      <point x="605" y="126"/>
      <point x="681" y="155"/>
      <point x="683" y="260" type="curve" smooth="yes"/>
      <point x="685" y="391"/>
      <point x="658" y="395"/>
      <point x="412" y="452" type="curve" smooth="yes"/>
      <point x="186" y="504"/>
      <point x="92" y="557"/>
      <point x="92" y="761" type="curve" smooth="yes"/>
      <point x="92" y="946"/>
      <point x="249" y="1047"/>
      <point x="484" y="1047" type="curve" smooth="yes"/>
      <point x="666" y="1047"/>
      <point x="780" y="996"/>
    </contour>
  </outline>
</glyph>
<glyph name="t" format="1">
  <advance width="693"/>
  <unicode hex="0074"/>
  <outline>
    <contour>
      <point x="643" y="173" type="curve"/>
      <point x="677" y="32" type="line"/>
      <point x="612" y="1"/>
      <point x="542" y="-16"/>
      <point x="477" y="-16" type="curve" smooth="yes"/>
      <point x="316" y="-16"/>
      <point x="173" y="61"/>
      <point x="173" y="298" type="curve" smooth="yes"/>
      <point x="173" y="879" type="line"/>
      <point x="30" y="879" type="line"/>
      <point x="30" y="1023" type="line"/>
      <point x="174" y="1023" type="line"/>
      <point x="182" y="1340" type="line"/>
      <point x="385" y="1394" type="line"/>
      <point x="385" y="1023" type="line"/>
      <point x="610" y="1023" type="line"/>
      <point x="610" y="879" type="line"/>
      <point x="385" y="879" type="line"/>
      <point x="385" y="311" type="line" smooth="yes"/>
      <point x="385" y="183"/>
      <point x="438" y="141"/>
      <point x="512" y="141" type="curve" smooth="yes"/>
      <point x="547" y="141"/>
      <point x="595" y="153"/>
    </contour>
  </outline>
</glyph>
<glyph name="v" format="1">
  <advance width="960"/>
  <unicode hex="0076"/>
  <outline>
    <contour>
      <point x="377" y="0" type="line"/>
      <point x="563" y="0" type="line"/>
      <point x="950" y="1023" type="line"/>
      <point x="737" y="1023" type="line"/>
      <point x="483" y="286" type="line"/>
      <point x="234" y="1023" type="line"/>
      <point x="10" y="1023" type="line"/>
    </contour>
  </outline>
</glyph>
<glyph name="w" format="1">
  <advance width="1499"/>
  <unicode hex="0077"/>
  <outline>
    <contour>
      <point x="335" y="0" type="line"/>
      <point x="-7" y="1023" type="line"/>
      <point x="214" y="1023" type="line"/>
      <point x="436" y="271" type="line"/>
      <point x="699" y="1023" type="line"/>
      <point x="811" y="1023" type="line"/>
      <point x="1067" y="271" type="line"/>
      <point x="1294" y="1023" type="line"/>
      <point x="1503" y="1023" type="line"/>
      <point x="1145" y="0" type="line"/>
      <point x="967" y="0" type="line"/>
      <point x="746" y="657" type="line"/>
      <point x="514" y="0" type="line"/>
    </contour>
  </outline>
</glyph>
<glyph name="x" format="1">
  <advance width="981"/>
  <unicode hex="0078"/>
  <outline>
    <contour>
      <point x="1" y="0" type="line"/>
      <point x="236" y="0" type="line"/>
      <point x="487" y="351" type="line"/>
      <point x="744" y="0" type="line"/>
      <point x="989" y="0" type="line"/>
      <point x="617" y="508" type="line"/>
      <point x="988" y="1023" type="line"/>
      <point x="753" y="1023" type="line"/>
      <point x="503" y="662" type="line"/>
      <point x="239" y="1023" type="line"/>
      <point x="-6" y="1023" type="line"/>
      <point x="372" y="507" type="line"/>
    </contour>
  </outline>
</glyph>
<glyph name="y" format="1">
  <advance width="971"/>
  <unicode hex="0079"/>
  <outline>
    <contour>
      <point x="153" y="-317" type="curve" smooth="yes"/>
      <point x="371" y="-317"/>
      <point x="474" y="-199"/>
      <point x="581" y="68" type="curve" smooth="yes"/>
      <point x="965" y="1023" type="line"/>
      <point x="755" y="1023" type="line"/>
      <point x="495" y="353" type="line"/>
      <point x="231" y="1023" type="line"/>
      <point x="13" y="1023" type="line"/>
      <point x="386" y="135" type="line"/>
      <point x="373" y="94" type="line" smooth="yes"/>
      <point x="312" y="-98"/>
      <point x="245" y="-135"/>
      <point x="130" y="-135" type="curve" smooth="yes"/>
      <point x="112" y="-135"/>
      <point x="91" y="-132"/>
      <point x="69" y="-129" type="curve"/>
      <point x="44" y="-302" type="line"/>
      <point x="81" y="-312"/>
      <point x="120" y="-317"/>
    </contour>
  </outline>
</glyph>
<glyph name="z" format="1">
  <advance width="878"/>
  <unicode hex="007A"/>
  <outline>
    <contour>
      <point x="86" y="870" type="line"/>
      <point x="86" y="1023" type="line"/>
      <point x="836" y="1023" type="line"/>
      <point x="836" y="878" type="line"/>
      <point x="299" y="152" type="line"/>
      <point x="834" y="152" type="line"/>
      <point x="834" y="0" type="line"/>
      <point x="62" y="0" type="line"/>
      <point x="62" y="144" type="line"/>
      <point x="587" y="870" type="line"/>
    </contour>
  </outline>
</glyph>
<glyph name="braceleft" format="1">
  <advance width="644"/>
  <unicode hex="007B"/>
  <outline>
    <contour>
      <point x="631" y="-130" type="curve"/>
      <point x="631" y="9" type="line"/>
      <point x="420" y="9"/>
      <point x="393" y="50"/>
      <point x="393" y="381" type="curve" smooth="yes"/>
      <point x="393" y="563"/>
      <point x="351" y="676"/>
      <point x="222" y="707" type="curve"/>
      <point x="351" y="738"/>
      <point x="393" y="851"/>
      <point x="393" y="1033" type="curve" smooth="yes"/>
      <point x="393" y="1365"/>
      <point x="420" y="1405"/>
      <point x="631" y="1405" type="curve"/>
      <point x="631" y="1544" type="line"/>
      <point x="233" y="1544"/>
      <point x="152" y="1419"/>
      <point x="152" y="1048" type="curve" smooth="yes"/>
      <point x="152" y="917"/>
      <point x="154" y="792"/>
      <point x="-11" y="780" type="curve"/>
      <point x="-11" y="634" type="line"/>
      <point x="154" y="622"/>
      <point x="152" y="497"/>
      <point x="152" y="366" type="curve" smooth="yes"/>
      <point x="152" y="-5"/>
      <point x="233" y="-130"/>
    </contour>
  </outline>
</glyph>
<glyph name="bar" format="1">
  <advance width="416"/>
  <unicode hex="007C"/>
  <outline>
    <contour>
      <point x="325" y="-197" type="line"/>
      <point x="105" y="-197" type="line"/>
      <point x="105" y="1502" type="line"/>
      <point x="325" y="1502" type="line"/>
    </contour>
  </outline>
</glyph>
<glyph name="braceright" format="1">
  <advance width="644"/>
  <unicode hex="007D"/>
  <outline>
    <contour>
      <point x="-11" y="-130" type="line"/>
      <point x="387" y="-130"/>
      <point x="468" y="-5"/>
      <point x="468" y="366" type="curve" smooth="yes"/>
      <point x="468" y="497"/>
      <point x="466" y="622"/>
      <point x="631" y="634" type="curve"/>
      <point x="631" y="780" type="line"/>
      <point x="466" y="792"/>
      <point x="468" y="917"/>
      <point x="468" y="1048" type="curve" smooth="yes"/>
      <point x="468" y="1419"/>
      <point x="387" y="1544"/>
      <point x="-11" y="1544" type="curve"/>
      <point x="-11" y="1405" type="line"/>
      <point x="200" y="1405"/>
      <point x="227" y="1365"/>
      <point x="227" y="1033" type="curve" smooth="yes"/>
      <point x="227" y="851"/>
      <point x="269" y="738"/>
      <point x="398" y="707" type="curve"/>
      <point x="269" y="676"/>
      <point x="227" y="563"/>
      <point x="227" y="381" type="curve" smooth="yes"/>
      <point x="227" y="50"/>
      <point x="200" y="9"/>
      <point x="-11" y="9" type="curve"/>
    </contour>
  </outline>
</glyph>
<glyph name="asciitilde" format="1">
  <advance width="962"/>
  <unicode hex="007E"/>
  <outline>
    <contour>
      <point x="791" y="666" type="curve" smooth="yes"/>
      <point x="898" y="675"/>
      <point x="944" y="789"/>
      <point x="953" y="981" type="curve"/>
      <point x="766" y="981" type="line"/>
      <point x="748" y="913"/>
      <point x="744" y="884"/>
      <point x="687" y="884" type="curve" smooth="yes"/>
      <point x="613" y="884"/>
      <point x="360" y="993"/>
      <point x="202" y="980" type="curve" smooth="yes"/>
      <point x="110" y="972"/>
      <point x="25" y="910"/>
      <point x="10" y="673" type="curve"/>
      <point x="197" y="673" type="line"/>
      <point x="218" y="761"/>
      <point x="243" y="768"/>
      <point x="275" y="768" type="curve" smooth="yes"/>
      <point x="372" y="768"/>
      <point x="593" y="653"/>
    </contour>
  </outline>
</glyph>
<glyph name="sterling" format="1">
  <advance width="1168"/>
  <unicode hex="00A3"/>
  <outline>
    <contour>
      <point x="219" y="-26" type="line"/>
      <point x="433" y="15"/>
      <point x="554" y="42"/>
      <point x="676" y="42" type="curve" smooth="yes"/>
      <point x="806" y="42"/>
      <point x="879" y="21"/>
      <point x="979" y="0" type="curve"/>
      <point x="1022" y="185" type="line"/>
      <point x="931" y="208"/>
      <point x="853" y="239"/>
      <point x="739" y="239" type="curve" smooth="yes"/>
      <point x="615" y="239"/>
      <point x="541" y="222"/>
      <point x="358" y="155" type="curve"/>
      <point x="397" y="233"/>
      <point x="456" y="319"/>
      <point x="457" y="504" type="curve" smooth="yes"/>
      <point x="457" y="558"/>
      <point x="449" y="601"/>
      <point x="443" y="673" type="curve"/>
      <point x="773" y="673" type="line"/>
      <point x="773" y="834" type="line"/>
      <point x="434" y="834" type="line"/>
      <point x="429" y="891"/>
      <point x="417" y="955"/>
      <point x="417" y="1007" type="curve" smooth="yes"/>
      <point x="417" y="1215"/>
      <point x="490" y="1304"/>
      <point x="651" y="1304" type="curve" smooth="yes"/>
      <point x="733" y="1304"/>
      <point x="781" y="1287"/>
      <point x="817" y="1125" type="curve"/>
      <point x="1003" y="1152" type="line"/>
      <point x="971" y="1373"/>
      <point x="878" y="1489"/>
      <point x="645" y="1489" type="curve" smooth="yes"/>
      <point x="359" y="1489"/>
      <point x="197" y="1321"/>
      <point x="197" y="988" type="curve" smooth="yes"/>
      <point x="197" y="942"/>
      <point x="208" y="884"/>
      <point x="212" y="834" type="curve"/>
      <point x="50" y="834" type="line"/>
      <point x="50" y="673" type="line"/>
      <point x="226" y="673" type="line"/>
      <point x="235" y="636"/>
      <point x="248" y="576"/>
      <point x="248" y="527" type="curve" smooth="yes"/>
      <point x="248" y="345"/>
      <point x="166" y="171"/>
      <point x="120" y="103" type="curve"/>
    </contour>
  </outline>
</glyph>
<glyph name="yen" format="1">
  <advance width="1162"/>
  <unicode hex="00A5"/>
  <outline>
    <contour>
      <point x="210" y="300" type="line"/>
      <point x="956" y="300" type="line"/>
      <point x="956" y="434" type="line"/>
      <point x="210" y="434" type="line"/>
    </contour>
    <contour>
      <point x="210" y="542" type="line"/>
      <point x="956" y="542" type="line"/>
      <point x="956" y="675" type="line"/>
      <point x="210" y="675" type="line"/>
    </contour>
    <component base="Y"/>
  </outline>
</glyph>
<glyph name="brokenbar" format="1">
  <advance width="416"/>
  <unicode hex="00A6"/>
  <outline>
    <contour>
      <point x="96" y="-198" type="line"/>
      <point x="327" y="-198" type="line"/>
      <point x="327" y="475" type="line"/>
      <point x="96" y="475" type="line"/>
    </contour>
    <contour>
      <point x="96" y="842" type="line"/>
      <point x="327" y="842" type="line"/>
      <point x="327" y="1504" type="line"/>
      <point x="96" y="1504" type="line"/>
    </contour>
  </outline>
</glyph>
<glyph name="section" format="1">
  <advance width="1005"/>
  <unicode hex="00A7"/>
  <outline>
    <contour>
      <point x="541" y="-24" type="curve" smooth="yes"/>
      <point x="772" y="-24"/>
      <point x="918" y="76"/>
      <point x="918" y="265" type="curve" smooth="yes"/>
      <point x="918" y="367"/>
      <point x="846" y="433"/>
      <point x="771" y="483" type="curve"/>
      <point x="875" y="588"/>
      <point x="878" y="645"/>
      <point x="885" y="712" type="curve" smooth="yes"/>
      <point x="914" y="994"/>
      <point x="345" y="1060"/>
      <point x="358" y="1215" type="curve"/>
      <point x="360" y="1274"/>
      <point x="414" y="1317"/>
      <point x="529" y="1319" type="curve" smooth="yes"/>
      <point x="611" y="1320"/>
      <point x="691" y="1304"/>
      <point x="747" y="1198" type="curve"/>
      <point x="747" y="1199"/>
      <point x="884" y="1284"/>
      <point x="884" y="1284" type="curve"/>
      <point x="812" y="1436"/>
      <point x="707" y="1489"/>
      <point x="530" y="1489" type="curve" smooth="yes"/>
      <point x="311" y="1489"/>
      <point x="147" y="1391"/>
      <point x="147" y="1203" type="curve" smooth="yes"/>
      <point x="147" y="1085"/>
      <point x="225" y="1028"/>
      <point x="293" y="987" type="curve"/>
      <point x="179" y="895"/>
      <point x="155" y="823"/>
      <point x="154" y="755" type="curve" smooth="yes"/>
      <point x="149" y="429"/>
      <point x="753" y="406"/>
      <point x="728" y="247" type="curve" smooth="yes"/>
      <point x="720" y="197"/>
      <point x="679" y="152"/>
      <point x="544" y="152" type="curve" smooth="yes"/>
      <point x="422" y="152"/>
      <point x="329" y="196"/>
      <point x="280" y="328" type="curve"/>
      <point x="127" y="273" type="line"/>
      <point x="168" y="49"/>
      <point x="376" y="-24"/>
    </contour>
    <contour>
      <point x="622" y="558" type="curve"/>
      <point x="354" y="675"/>
      <point x="240" y="725"/>
      <point x="418" y="916" type="curve"/>
      <point x="712" y="791"/>
      <point x="752" y="739"/>
    </contour>
  </outline>
</glyph>
<glyph name="dieresis" format="1">
  <advance width="860"/>
  <unicode hex="00A8"/>
  <outline>
    <contour>
      <point x="66" y="1160" type="line"/>
      <point x="313" y="1160" type="line"/>
      <point x="313" y="1403" type="line"/>
      <point x="66" y="1403" type="line"/>
    </contour>
    <contour>
      <point x="526" y="1160" type="line"/>
      <point x="772" y="1160" type="line"/>
      <point x="772" y="1403" type="line"/>
      <point x="526" y="1403" type="line"/>
    </contour>
    <contour>
      <point x="430" y="1023" type="move" name="_top"/>
    </contour>
  </outline>
</glyph>
<glyph name="copyright" format="1">
  <advance width="1702"/>
  <unicode hex="00A9"/>
  <outline>
    <contour>
      <point x="856" y="326" type="curve" smooth="yes"/>
      <point x="999" y="326"/>
      <point x="1095" y="394"/>
      <point x="1138" y="543" type="curve"/>
      <point x="1036" y="578" type="line"/>
      <point x="1003" y="475"/>
      <point x="958" y="436"/>
      <point x="860" y="436" type="curve" smooth="yes"/>
      <point x="714" y="436"/>
      <point x="647" y="526"/>
      <point x="647" y="781" type="curve" smooth="yes"/>
      <point x="647" y="1036"/>
      <point x="714" y="1126"/>
      <point x="860" y="1126" type="curve" smooth="yes"/>
      <point x="958" y="1126"/>
      <point x="1003" y="1088"/>
      <point x="1036" y="985" type="curve"/>
      <point x="1138" y="1019" type="line"/>
      <point x="1095" y="1168"/>
      <point x="999" y="1236"/>
      <point x="856" y="1236" type="curve" smooth="yes"/>
      <point x="642" y="1236"/>
      <point x="523" y="1105"/>
      <point x="523" y="781" type="curve" smooth="yes"/>
      <point x="523" y="457"/>
      <point x="642" y="326"/>
    </contour>
    <contour>
      <point x="849" y="121" type="curve" smooth="yes"/>
      <point x="482" y="121"/>
      <point x="208" y="386"/>
      <point x="208" y="773" type="curve" smooth="yes"/>
      <point x="208" y="1151"/>
      <point x="483" y="1429"/>
      <point x="850" y="1429" type="curve" smooth="yes"/>
      <point x="1218" y="1429"/>
      <point x="1494" y="1121"/>
      <point x="1494" y="773" type="curve" smooth="yes"/>
      <point x="1494" y="426"/>
      <point x="1217" y="121"/>
    </contour>
    <contour>
      <point x="850" y="53" type="curve" smooth="yes"/>
      <point x="1251" y="53"/>
      <point x="1579" y="375"/>
      <point x="1579" y="774" type="curve" smooth="yes"/>
      <point x="1579" y="1175"/>
      <point x="1251" y="1497"/>
      <point x="850" y="1497" type="curve" smooth="yes"/>
      <point x="451" y="1497"/>
      <point x="123" y="1205"/>
      <point x="123" y="774" type="curve" smooth="yes"/>
      <point x="123" y="335"/>
      <point x="451" y="53"/>
    </contour>
  </outline>
</glyph>
<glyph name="ordfeminine" format="1">
  <advance width="946"/>
  <unicode hex="00AA"/>
  <outline>
    <contour>
      <point x="419" y="583" type="curve" smooth="yes"/>
      <point x="522" y="589"/>
      <point x="595" y="646"/>
      <point x="635" y="701" type="curve"/>
      <point x="654" y="603" type="line"/>
      <point x="822" y="603" type="line"/>
      <point x="822" y="1139" type="line" smooth="yes"/>
      <point x="822" y="1357"/>
      <point x="696" y="1474"/>
      <point x="495" y="1474" type="curve" smooth="yes"/>
      <point x="398" y="1474"/>
      <point x="260" y="1422"/>
      <point x="185" y="1340" type="curve"/>
      <point x="185" y="1340"/>
      <point x="306" y="1229"/>
      <point x="306" y="1228" type="curve"/>
      <point x="363" y="1284"/>
      <point x="425" y="1318"/>
      <point x="497" y="1318" type="curve" smooth="yes"/>
      <point x="590" y="1318"/>
      <point x="629" y="1258"/>
      <point x="629" y="1159" type="curve" smooth="yes"/>
      <point x="629" y="1111" type="line"/>
      <point x="544" y="1106" type="line" smooth="yes"/>
      <point x="319" y="1092"/>
      <point x="143" y="1018"/>
      <point x="143" y="804" type="curve" smooth="yes"/>
      <point x="143" y="656"/>
      <point x="278" y="576"/>
    </contour>
    <contour>
      <point x="422" y="705" type="curve" smooth="yes"/>
      <point x="348" y="712"/>
      <point x="310" y="757"/>
      <point x="320" y="832" type="curve" smooth="yes"/>
      <point x="332" y="911"/>
      <point x="366" y="958"/>
      <point x="546" y="971" type="curve" smooth="yes"/>
      <point x="629" y="977" type="line"/>
      <point x="629" y="820" type="line"/>
      <point x="590" y="768"/>
      <point x="504" y="699"/>
    </contour>
  </outline>
</glyph>
<glyph name="guillemotleft" format="1">
  <advance width="946"/>
  <unicode hex="00AB"/>
  <outline>
    <contour>
      <point x="441" y="227" type="line"/>
      <point x="441" y="449" type="line"/>
      <point x="140" y="650" type="line"/>
      <point x="441" y="850" type="line"/>
      <point x="441" y="1072" type="line"/>
      <point x="-16" y="806" type="line"/>
      <point x="-16" y="494" type="line"/>
    </contour>
    <contour>
      <point x="938" y="227" type="line"/>
      <point x="938" y="449" type="line"/>
      <point x="637" y="650" type="line"/>
      <point x="938" y="850" type="line"/>
      <point x="938" y="1072" type="line"/>
      <point x="482" y="806" type="line"/>
      <point x="482" y="494" type="line"/>
    </contour>
  </outline>
</glyph>
<glyph name="registered" format="1">
  <advance width="1702"/>
  <unicode hex="00AE"/>
  <outline>
    <contour>
      <point x="1063" y="379" type="line"/>
      <point x="1202" y="379" type="line"/>
      <point x="1016" y="790" type="line"/>
      <point x="1122" y="827"/>
      <point x="1179" y="900"/>
      <point x="1179" y="1017" type="curve" smooth="yes"/>
      <point x="1179" y="1173"/>
      <point x="1071" y="1248"/>
      <point x="857" y="1248" type="curve" smooth="yes"/>
      <point x="578" y="1248" type="line"/>
      <point x="578" y="381" type="line"/>
      <point x="705" y="381" type="line"/>
      <point x="705" y="769" type="line"/>
      <point x="888" y="769" type="line"/>
    </contour>
    <contour>
      <point x="708" y="870" type="line"/>
      <point x="708" y="1153" type="line"/>
      <point x="848" y="1153" type="line" smooth="yes"/>
      <point x="960" y="1153"/>
      <point x="1046" y="1135"/>
      <point x="1046" y="1015" type="curve" smooth="yes"/>
      <point x="1046" y="875.117"/>
      <point x="955.891" y="869.967"/>
      <point x="851.198" y="869.967" type="curve" smooth="yes"/>
      <point x="842.878" y="869.967"/>
      <point x="834.466" y="870"/>
      <point x="826" y="870" type="curve" smooth="yes"/>
    </contour>
    <contour>
      <point x="849" y="121" type="curve" smooth="yes"/>
      <point x="482" y="121"/>
      <point x="208" y="386"/>
      <point x="208" y="773" type="curve" smooth="yes"/>
      <point x="208" y="1151"/>
      <point x="483" y="1429"/>
      <point x="850" y="1429" type="curve" smooth="yes"/>
      <point x="1218" y="1429"/>
      <point x="1494" y="1121"/>
      <point x="1494" y="773" type="curve" smooth="yes"/>
      <point x="1494" y="426"/>
      <point x="1217" y="121"/>
    </contour>
    <contour>
      <point x="850" y="53" type="curve" smooth="yes"/>
      <point x="1251" y="53"/>
      <point x="1579" y="375"/>
      <point x="1579" y="774" type="curve" smooth="yes"/>
      <point x="1579" y="1175"/>
      <point x="1251" y="1497"/>
      <point x="850" y="1497" type="curve" smooth="yes"/>
      <point x="451" y="1497"/>
      <point x="123" y="1205"/>
      <point x="123" y="774" type="curve" smooth="yes"/>
      <point x="123" y="335"/>
      <point x="451" y="53"/>
    </contour>
  </outline>
</glyph>
<glyph name="macron" format="1">
  <advance width="724"/>
  <unicode hex="00AF"/>
  <outline>
    <contour>
      <point x="154" y="1166" type="line"/>
      <point x="608" y="1166" type="line"/>
      <point x="608" y="1323" type="line"/>
      <point x="154" y="1323" type="line"/>
    </contour>
    <contour>
      <point x="362" y="1023" type="move" name="_top"/>
    </contour>
  </outline>
</glyph>
<glyph name="degree" format="1">
  <advance width="483"/>
  <unicode hex="00B0"/>
  <outline>
    <contour>
      <point x="240" y="1012" type="curve"/>
      <point x="408" y="1012"/>
      <point x="502" y="1134"/>
      <point x="502" y="1267" type="curve"/>
      <point x="502" y="1400"/>
      <point x="408" y="1522"/>
      <point x="240" y="1522" type="curve"/>
      <point x="72" y="1522"/>
      <point x="-22" y="1400"/>
      <point x="-22" y="1267" type="curve"/>
      <point x="-22" y="1134"/>
      <point x="72" y="1012"/>
    </contour>
    <contour>
      <point x="240" y="1397" type="curve"/>
      <point x="315" y="1397"/>
      <point x="358" y="1341"/>
      <point x="358" y="1267" type="curve"/>
      <point x="358" y="1193"/>
      <point x="315" y="1137"/>
      <point x="240" y="1137" type="curve"/>
      <point x="165" y="1137"/>
      <point x="122" y="1193"/>
      <point x="122" y="1267" type="curve"/>
      <point x="122" y="1341"/>
      <point x="165" y="1397"/>
    </contour>
  </outline>
</glyph>
<glyph name="acute" format="1">
  <advance width="496"/>
  <unicode hex="00B4"/>
  <outline>
    <contour>
      <point x="-6" y="1142" type="line"/>
      <point x="143" y="1143" type="line"/>
      <point x="500" y="1463" type="line"/>
      <point x="196" y="1463" type="line"/>
    </contour>
    <contour>
      <point x="69" y="1023" type="move" name="_top"/>
    </contour>
  </outline>
</glyph>
<glyph name="periodcentered" format="1">
  <advance width="434"/>
  <unicode hex="00B7"/>
  <outline>
    <contour>
      <point x="78" y="523" type="line"/>
      <point x="352" y="523" type="line"/>
      <point x="352" y="767" type="line"/>
      <point x="78" y="767" type="line"/>
    </contour>
  </outline>
</glyph>
<glyph name="cedilla" format="1">
  <advance width="435"/>
  <unicode hex="00B8"/>
  <outline>
    <contour>
      <point x="122" y="-174" type="line"/>
      <point x="122" y="20" type="line"/>
      <point x="390" y="20" type="line"/>
      <point x="390" y="-189" type="line" smooth="yes"/>
      <point x="390" y="-281"/>
      <point x="334" y="-390"/>
      <point x="214" y="-390" type="curve" smooth="yes"/>
      <point x="200" y="-390"/>
      <point x="178" y="-387"/>
      <point x="164" y="-381" type="curve"/>
      <point x="164" y="-286" type="line"/>
      <point x="179" y="-290"/>
      <point x="196" y="-295"/>
      <point x="206" y="-295" type="curve" smooth="yes"/>
      <point x="235" y="-295"/>
      <point x="241" y="-269"/>
      <point x="241" y="-174" type="curve"/>
    </contour>
  </outline>
</glyph>
<glyph name="uni00B9" format="1">
  <advance width="981"/>
  <unicode hex="00B9"/>
  <outline>
    <contour>
      <point x="446" y="769" type="line"/>
      <point x="624" y="769" type="line"/>
      <point x="624" y="1464" type="line"/>
      <point x="462" y="1464" type="line"/>
      <point x="263" y="1389" type="line"/>
      <point x="295" y="1248" type="line"/>
      <point x="446" y="1309" type="line"/>
    </contour>
  </outline>
</glyph>
<glyph name="uni00B9" format="1">
  <advance width="546"/>
  <unicode hex="00b9"/>
  <outline>
    <contour>
      <point x="262" y="769" type="line" smooth="no"/>
      <point x="375" y="769" type="line" smooth="no"/>
      <point x="375" y="1464" type="line" smooth="no"/>
      <point x="272" y="1464" type="line" smooth="no"/>
      <point x="124" y="1397" type="line" smooth="no"/>
      <point x="145" y="1307" type="line" smooth="no"/>
      <point x="262" y="1365" type="line" smooth="no"/>
    </contour>
  </outline>
</glyph>
<glyph name="guillemotright" format="1">
  <advance width="946"/>
  <unicode hex="00BB"/>
  <outline>
    <contour>
      <point x="-7" y="1069" type="line"/>
      <point x="448" y="798" type="line"/>
      <point x="448" y="501" type="line"/>
      <point x="-7" y="230" type="line"/>
      <point x="-7" y="441" type="line"/>
      <point x="300" y="650" type="line"/>
      <point x="-7" y="857" type="line"/>
    </contour>
    <contour>
      <point x="938" y="798" type="line"/>
      <point x="938" y="501" type="line"/>
      <point x="483" y="230" type="line"/>
      <point x="483" y="441" type="line"/>
      <point x="790" y="650" type="line"/>
      <point x="483" y="857" type="line"/>
      <point x="483" y="1069" type="line"/>
    </contour>
  </outline>
</glyph>
<glyph name="onequarter" format="1">
  <advance width="1403"/>
  <unicode hex="00BC"/>
  <outline>
    <contour>
      <point x="1096" y="0" type="line"/>
      <point x="1268" y="0" type="line"/>
      <point x="1268" y="116" type="line"/>
      <point x="1377" y="116" type="line"/>
      <point x="1377" y="244" type="line"/>
      <point x="1268" y="244" type="line"/>
      <point x="1268" y="693" type="line"/>
      <point x="1042" y="693" type="line"/>
      <point x="758" y="220" type="line"/>
      <point x="758" y="116" type="line"/>
      <point x="1096" y="116" type="line"/>
    </contour>
    <contour>
      <point x="175" y="769" type="line"/>
      <point x="353" y="769" type="line"/>
      <point x="353" y="1464" type="line"/>
      <point x="191" y="1464" type="line"/>
      <point x="32" y="1389" type="line"/>
      <point x="64" y="1248" type="line"/>
      <point x="175" y="1309" type="line"/>
    </contour>
    <contour>
      <point x="145" y="-14" type="line"/>
      <point x="1380" y="1415" type="line"/>
      <point x="1258" y="1518" type="line"/>
      <point x="22" y="89" type="line"/>
    </contour>
    <contour>
      <point x="936" y="244" type="line"/>
      <point x="1096" y="536" type="line"/>
      <point x="1096" y="244" type="line"/>
    </contour>
  </outline>
</glyph>
<glyph name="onehalf" format="1">
  <advance width="1333"/>
  <unicode hex="00BD"/>
  <outline>
    <contour>
      <point x="1409.44" y="479.863" type="curve" smooth="yes"/>
      <point x="1409.44" y="648.466"/>
      <point x="1283.99" y="712"/>
      <point x="1155" y="712" type="curve" smooth="yes"/>
      <point x="1049" y="712"/>
      <point x="934" y="658"/>
      <point x="891" y="537" type="curve"/>
      <point x="1032" y="467" type="line"/>
      <point x="1050" y="526"/>
      <point x="1074" y="566"/>
      <point x="1145" y="566" type="curve" smooth="yes"/>
      <point x="1211.16" y="566"/>
      <point x="1233.05" y="529.135"/>
      <point x="1233.05" y="483.704" type="curve" smooth="yes"/>
      <point x="1233.05" y="379.164"/>
      <point x="1092.11" y="291.297"/>
      <point x="912" y="129" type="curve"/>
      <point x="912" y="0" type="line"/>
      <point x="1408" y="0" type="line"/>
      <point x="1408" y="125" type="line"/>
      <point x="1150" y="126" type="line"/>
      <point x="1298.41" y="255.056"/>
      <point x="1409.44" y="332.277"/>
    </contour>
    <contour>
      <point x="166" y="769" type="line"/>
      <point x="344" y="769" type="line"/>
      <point x="344" y="1464" type="line"/>
      <point x="182" y="1464" type="line"/>
      <point x="23" y="1389" type="line"/>
      <point x="55" y="1248" type="line"/>
      <point x="166" y="1309" type="line"/>
    </contour>
    <contour>
      <point x="139" y="-14" type="line"/>
      <point x="1374" y="1415" type="line"/>
      <point x="1252" y="1518" type="line"/>
      <point x="16" y="89" type="line"/>
    </contour>
  </outline>
</glyph>
<glyph name="threequarters" format="1">
  <advance width="1425"/>
  <unicode hex="00BE"/>
  <outline>
    <contour>
      <point x="132" y="910" type="line"/>
      <point x="162.158" y="786.249"/>
      <point x="279.587" y="742.86"/>
      <point x="381.597" y="742.86" type="curve" smooth="yes"/>
      <point x="546.1" y="742.86"/>
      <point x="641.111" y="826.464"/>
      <point x="641.111" y="965.346" type="curve" smooth="yes"/>
      <point x="641.111" y="1018.26"/>
      <point x="630.808" y="1100.05"/>
      <point x="510" y="1145" type="curve"/>
      <point x="589" y="1174"/>
      <point x="617" y="1236"/>
      <point x="617" y="1302" type="curve" smooth="yes"/>
      <point x="617" y="1413"/>
      <point x="508" y="1481"/>
      <point x="366" y="1481" type="curve" smooth="yes"/>
      <point x="284" y="1481"/>
      <point x="178" y="1441"/>
      <point x="148" y="1359" type="curve"/>
      <point x="257" y="1277" type="line"/>
      <point x="279" y="1314"/>
      <point x="313" y="1348"/>
      <point x="367" y="1348" type="curve" smooth="yes"/>
      <point x="423.916" y="1348"/>
      <point x="457.478" y="1327.5"/>
      <point x="457.478" y="1281.36" type="curve" smooth="yes"/>
      <point x="457.478" y="1232.56"/>
      <point x="432.64" y="1206.85"/>
      <point x="320" y="1205" type="curve"/>
      <point x="320" y="1069" type="line"/>
      <point x="456" y="1069"/>
      <point x="474" y="1022"/>
      <point x="474" y="958" type="curve" smooth="yes"/>
      <point x="474" y="909"/>
      <point x="427" y="880"/>
      <point x="377" y="880" type="curve" smooth="yes"/>
      <point x="336" y="880"/>
      <point x="278" y="893"/>
      <point x="253" y="978" type="curve"/>
    </contour>
    <contour>
      <point x="1293" y="0" type="line"/>
      <point x="1469" y="0" type="line"/>
      <point x="1469" y="116" type="line"/>
      <point x="1573" y="116" type="line"/>
      <point x="1573" y="244" type="line"/>
      <point x="1469" y="244" type="line"/>
      <point x="1469" y="693" type="line"/>
      <point x="1239" y="693" type="line"/>
      <point x="954" y="220" type="line"/>
      <point x="954" y="116" type="line"/>
      <point x="1293" y="116" type="line"/>
    </contour>
    <contour>
      <point x="335" y="-14" type="line"/>
      <point x="1570" y="1415" type="line"/>
      <point x="1448" y="1518" type="line"/>
      <point x="212" y="89" type="line"/>
    </contour>
    <contour>
      <point x="1133" y="244" type="line"/>
      <point x="1293" y="536" type="line"/>
      <point x="1293" y="244" type="line"/>
    </contour>
  </outline>
</glyph>
<glyph name="AE" format="1">
  <advance width="2030"/>
  <unicode hex="00C6"/>
  <outline>
    <contour>
      <point x="-49" y="0" type="line"/>
      <point x="203" y="0" type="line"/>
      <point x="416" y="365" type="line"/>
      <point x="974" y="365" type="line"/>
      <point x="974" y="0" type="line"/>
      <point x="2015" y="0" type="line"/>
      <point x="2015" y="176" type="line"/>
      <point x="1203" y="176" type="line"/>
      <point x="1203" y="692" type="line"/>
      <point x="1842" y="692" type="line"/>
      <point x="1843" y="873" type="line"/>
      <point x="1203" y="873" type="line"/>
      <point x="1203" y="1288" type="line"/>
      <point x="2005" y="1288" type="line"/>
      <point x="2005" y="1464" type="line"/>
      <point x="809" y="1464" type="line"/>
    </contour>
    <contour>
      <point x="510" y="536" type="line"/>
      <point x="974" y="1374" type="line"/>
      <point x="974" y="536" type="line"/>
    </contour>
    <contour>
      <point x="1015" y="1464" type="move" name="top"/>
    </contour>
  </outline>
</glyph>
<glyph name="AE" format="1">
  <advance width="2030"/>
  <unicode hex="00C6"/>
  <outline>
    <contour>
      <point x="1015" y="1464" type="move" name="top"/>
    </contour>
    <contour>
      <point x="-49" y="0" type="line"/>
      <point x="203" y="0" type="line"/>
      <point x="416" y="365" type="line"/>
      <point x="974" y="365" type="line"/>
      <point x="974" y="0" type="line"/>
      <point x="2015" y="0" type="line"/>
      <point x="2015" y="176" type="line"/>
      <point x="1203" y="176" type="line"/>
      <point x="1203" y="692" type="line"/>
      <point x="1842" y="692" type="line"/>
      <point x="1843" y="873" type="line"/>
      <point x="1203" y="873" type="line"/>
      <point x="1203" y="1288" type="line"/>
      <point x="2005" y="1288" type="line"/>
      <point x="2005" y="1464" type="line"/>
      <point x="809" y="1464" type="line"/>
    </contour>
    <contour>
      <point x="510" y="536" type="line"/>
      <point x="974" y="1374" type="line"/>
      <point x="974" y="536" type="line"/>
    </contour>
  </outline>
</glyph>
<glyph name="Eth" format="1">
  <advance width="1444"/>
  <unicode hex="00D0"/>
  <outline>
    <component base="D"/>
    <contour>
      <point x="0" y="678" type="line"/>
      <point x="573" y="678" type="line"/>
      <point x="573" y="811" type="line"/>
      <point x="0" y="811" type="line"/>
    </contour>
  </outline>
</glyph>
<glyph name="Eth" format="1">
  <advance width="1444"/>
  <unicode hex="00D0"/>
  <outline>
    <contour>
      <point x="0" y="678" type="line"/>
      <point x="573" y="678" type="line"/>
      <point x="573" y="811" type="line"/>
      <point x="0" y="811" type="line"/>
    </contour>
    <component base="D"/>
  </outline>
</glyph>
<glyph name="Oslash" format="1">
  <advance width="1497"/>
  <unicode hex="00D8"/>
  <outline>
    <component base="O"/>
    <contour>
      <point x="368" y="-216" type="line"/>
      <point x="1258" y="1603" type="line"/>
      <point x="1126" y="1672" type="line"/>
      <point x="235" y="-146" type="line"/>
    </contour>
  </outline>
</glyph>
<glyph name="Oslash" format="1">
  <advance width="1497"/>
  <unicode hex="00D8"/>
  <outline>
    <contour>
      <point x="368" y="-216" type="line"/>
      <point x="1258" y="1603" type="line"/>
      <point x="1126" y="1672" type="line"/>
      <point x="235" y="-146" type="line"/>
    </contour>
    <component base="O"/>
    <contour>
      <point x="748.5" y="1464" type="move" name="top"/>
    </contour>
  </outline>
</glyph>
<glyph name="Thorn" format="1">
  <advance width="1261"/>
  <unicode hex="00DE"/>
  <outline>
    <contour>
      <point x="140" y="0" type="line"/>
      <point x="140" y="1464" type="line"/>
      <point x="376" y="1464" type="line"/>
      <point x="376" y="1204" type="line"/>
      <point x="575" y="1204" type="line" smooth="yes"/>
      <point x="1052" y="1204"/>
      <point x="1224" y="1069"/>
      <point x="1224" y="780" type="curve" smooth="yes"/>
      <point x="1224" y="449"/>
      <point x="1044" y="335"/>
      <point x="516" y="335" type="curve" smooth="yes"/>
      <point x="376" y="335" type="line"/>
      <point x="376" y="0" type="line"/>
    </contour>
    <contour>
      <point x="376" y="1033" type="line"/>
      <point x="376" y="505" type="line"/>
      <point x="572" y="505" type="line" smooth="yes"/>
      <point x="869" y="505"/>
      <point x="1001" y="541"/>
      <point x="1001" y="780" type="curve" smooth="yes"/>
      <point x="1001" y="986"/>
      <point x="868" y="1033"/>
      <point x="552" y="1033" type="curve" smooth="yes"/>
    </contour>
  </outline>
</glyph>
<glyph name="germandbls" format="1">
  <advance width="1199"/>
  <unicode hex="00DF"/>
  <outline>
    <contour>
      <point x="963.06" y="1196.33" type="curve" smooth="yes"/>
      <point x="963.06" y="1373.6"/>
      <point x="829.431" y="1492.15"/>
      <point x="553.972" y="1492.15" type="curve" smooth="yes"/>
      <point x="318.228" y="1492.15"/>
      <point x="99" y="1368.69"/>
      <point x="99" y="1151" type="curve" smooth="yes"/>
      <point x="99" y="0" type="line"/>
      <point x="331" y="0" type="line"/>
      <point x="331" y="1134" type="line" smooth="yes"/>
      <point x="331" y="1248.9"/>
      <point x="416.834" y="1329.08"/>
      <point x="557.246" y="1329.08" type="curve" smooth="yes"/>
      <point x="700.923" y="1329.08"/>
      <point x="749" y="1278.13"/>
      <point x="749" y="1209" type="curve" smooth="yes"/>
      <point x="749" y="996.332"/>
      <point x="429.998" y="1046.84"/>
      <point x="429.998" y="817.079" type="curve" smooth="yes"/>
      <point x="429.998" y="566.555"/>
      <point x="892.014" y="548.508"/>
      <point x="892.014" y="337.049" type="curve" smooth="yes"/>
      <point x="892.014" y="197.563"/>
      <point x="712.329" y="185"/>
      <point x="441" y="185" type="curve"/>
      <point x="441" y="0" type="line"/>
      <point x="481" y="0" type="line" smooth="yes"/>
      <point x="1045.78" y="0"/>
      <point x="1126.03" y="117.882"/>
      <point x="1126.03" y="340.021" type="curve" smooth="yes"/>
      <point x="1126.03" y="654.867"/>
      <point x="658.998" y="731.181"/>
      <point x="658.998" y="823.27" type="curve" smooth="yes"/>
      <point x="658.998" y="878.695"/>
      <point x="963.06" y="922.74"/>
    </contour>
  </outline>
</glyph>
<glyph name="ae" format="1">
  <advance width="1667"/>
  <unicode hex="00E6"/>
  <outline>
    <contour>
      <point x="128" y="932" type="line"/>
      <point x="242" y="1011"/>
      <point x="366" y="1047"/>
      <point x="518" y="1047" type="curve" smooth="yes"/>
      <point x="654" y="1047"/>
      <point x="846" y="1000"/>
      <point x="864" y="778" type="curve"/>
      <point x="864" y="778"/>
      <point x="818" y="779"/>
      <point x="818" y="779" type="curve"/>
      <point x="870" y="971"/>
      <point x="1029" y="1047"/>
      <point x="1191" y="1047" type="curve" smooth="yes"/>
      <point x="1476" y="1047"/>
      <point x="1597" y="844"/>
      <point x="1597" y="572" type="curve" smooth="yes"/>
      <point x="1597" y="563"/>
      <point x="1596" y="505"/>
      <point x="1594" y="488" type="curve"/>
      <point x="866" y="475" type="line"/>
      <point x="932" y="524" type="line"/>
      <point x="932" y="264"/>
      <point x="992" y="135"/>
      <point x="1191" y="133" type="curve" smooth="yes"/>
      <point x="1334" y="132"/>
      <point x="1399" y="240"/>
      <point x="1422" y="293" type="curve"/>
      <point x="1570" y="234" type="line"/>
      <point x="1515" y="83"/>
      <point x="1369" y="-22"/>
      <point x="1195" y="-24" type="curve"/>
      <point x="999" y="-24"/>
      <point x="839" y="55"/>
      <point x="797" y="268" type="curve"/>
      <point x="797" y="268"/>
      <point x="872" y="268"/>
      <point x="872" y="268" type="curve"/>
      <point x="773" y="32"/>
      <point x="616" y="-24"/>
      <point x="429" y="-24" type="curve" smooth="yes"/>
      <point x="254" y="-24"/>
      <point x="86" y="53"/>
      <point x="74" y="246" type="curve" smooth="yes"/>
      <point x="58" y="500"/>
      <point x="255" y="602"/>
      <point x="600" y="608" type="curve" smooth="yes"/>
      <point x="788" y="611" type="line"/>
      <point x="720" y="542" type="line"/>
      <point x="720" y="765"/>
      <point x="708" y="873"/>
      <point x="533" y="890" type="curve" smooth="yes"/>
      <point x="411" y="902"/>
      <point x="298" y="855"/>
      <point x="211" y="799" type="curve"/>
    </contour>
    <contour>
      <point x="721" y="368" type="curve" smooth="yes"/>
      <point x="721" y="523" type="line"/>
      <point x="787" y="462" type="line"/>
      <point x="620" y="458" type="line" smooth="yes"/>
      <point x="401" y="453"/>
      <point x="272" y="398"/>
      <point x="288" y="251" type="curve" smooth="yes"/>
      <point x="296" y="182"/>
      <point x="348" y="137"/>
      <point x="444" y="132" type="curve" smooth="yes"/>
      <point x="599" y="124"/>
      <point x="721" y="208"/>
    </contour>
    <contour>
      <point x="1409" y="546" type="line"/>
      <point x="1409" y="752"/>
      <point x="1368" y="891"/>
      <point x="1187" y="891" type="curve" smooth="yes"/>
      <point x="1003" y="891"/>
      <point x="933" y="730"/>
      <point x="933" y="562" type="curve"/>
      <point x="866" y="615" type="line"/>
      <point x="1486" y="627" type="line"/>
    </contour>
  </outline>
</glyph>
<glyph name="eth" format="1">
  <advance width="1053"/>
  <unicode hex="00F0"/>
  <outline>
    <contour>
      <point x="860" y="1424" type="curve"/>
      <point x="938" y="1314" type="line"/>
      <point x="938" y="1314"/>
      <point x="452" y="997"/>
      <point x="452" y="997" type="curve"/>
      <point x="374" y="1107" type="line"/>
      <point x="374" y="1107"/>
      <point x="860" y="1424"/>
    </contour>
    <contour>
      <point x="746" y="1008"/>
      <point x="566" y="1293"/>
      <point x="169" y="1293" type="curve"/>
      <point x="169" y="1432" type="line"/>
      <point x="799" y="1432"/>
      <point x="991" y="967"/>
      <point x="991" y="529" type="curve" smooth="yes"/>
      <point x="991" y="213"/>
      <point x="847" y="-27"/>
      <point x="518" y="-24" type="curve" smooth="yes"/>
      <point x="219" y="-21"/>
      <point x="64" y="208"/>
      <point x="64" y="454" type="curve" smooth="yes"/>
      <point x="64" y="746"/>
      <point x="282" y="908"/>
      <point x="503" y="908" type="curve" smooth="yes"/>
      <point x="611" y="908"/>
      <point x="711" y="864"/>
      <point x="776" y="774" type="curve"/>
    </contour>
    <contour>
      <point x="523" y="744" type="curve" smooth="yes"/>
      <point x="381" y="744"/>
      <point x="276" y="624"/>
      <point x="276" y="444" type="curve" smooth="yes"/>
      <point x="276" y="253"/>
      <point x="385" y="146"/>
      <point x="518" y="138" type="curve" smooth="yes"/>
      <point x="710" y="127"/>
      <point x="789" y="308"/>
      <point x="789" y="511" type="curve" smooth="yes"/>
      <point x="789" y="535"/>
      <point x="788" y="570"/>
      <point x="782" y="596" type="curve"/>
      <point x="690" y="697"/>
      <point x="619" y="744"/>
    </contour>
  </outline>
</glyph>
<glyph name="oslash" format="1">
  <advance width="1104"/>
  <unicode hex="00F8"/>
  <outline>
    <contour>
      <point x="942" y="1175" type="line"/>
      <point x="835" y="1232" type="line"/>
      <point x="182" y="-143" type="line"/>
      <point x="291" y="-200" type="line"/>
    </contour>
    <component base="o"/>
  </outline>
</glyph>
<glyph name="thorn" format="1">
  <advance width="1058"/>
  <unicode hex="00FE"/>
  <outline>
    <contour>
      <point x="75" y="-394" type="line"/>
      <point x="297" y="-371" type="line"/>
      <point x="297" y="82" type="line"/>
      <point x="355" y="31"/>
      <point x="453" y="-24"/>
      <point x="589" y="-24" type="curve" smooth="yes"/>
      <point x="858" y="-24"/>
      <point x="1021" y="217"/>
      <point x="1021" y="520" type="curve" smooth="yes"/>
      <point x="1021" y="847"/>
      <point x="869" y="1047"/>
      <point x="581" y="1047" type="curve" smooth="yes"/>
      <point x="439" y="1047"/>
      <point x="355" y="993"/>
      <point x="296" y="947" type="curve"/>
      <point x="296" y="1464" type="line"/>
      <point x="75" y="1464" type="line"/>
    </contour>
    <contour>
      <point x="551.956" y="888.04" type="curve" smooth="yes"/>
      <point x="686.678" y="888.04"/>
      <point x="792" y="778.004"/>
      <point x="792" y="521" type="curve" smooth="yes"/>
      <point x="792" y="301"/>
      <point x="738" y="136"/>
      <point x="573" y="136" type="curve" smooth="yes"/>
      <point x="413.214" y="136"/>
      <point x="296.952" y="225.538"/>
      <point x="296.952" y="528.588" type="curve" smooth="yes"/>
      <point x="296.952" y="815.623"/>
      <point x="428.733" y="888.04"/>
    </contour>
  </outline>
</glyph>
<glyph name="dcroat" format="1">
  <advance width="1137"/>
  <unicode hex="0111"/>
  <outline>
    <contour>
      <point x="589" y="1176" type="line"/>
      <point x="589" y="1176"/>
      <point x="1139" y="1176"/>
      <point x="1139" y="1176" type="curve"/>
      <point x="1139" y="1304" type="line"/>
      <point x="1139" y="1304"/>
      <point x="589" y="1304"/>
      <point x="589" y="1304" type="curve"/>
    </contour>
    <component base="d"/>
  </outline>
</glyph>
<glyph name="hbar" format="1">
  <advance width="1117"/>
  <unicode hex="0127"/>
  <outline>
    <contour>
      <point x="-12" y="1176" type="line"/>
      <point x="-12" y="1176"/>
      <point x="538" y="1176"/>
      <point x="538" y="1176" type="curve"/>
      <point x="538" y="1304" type="line"/>
      <point x="538" y="1304"/>
      <point x="-12" y="1304"/>
      <point x="-12" y="1304" type="curve"/>
    </contour>
    <component base="h"/>
  </outline>
</glyph>
<glyph name="dotlessi" format="1">
  <advance width="463"/>
  <unicode hex="0131"/>
  <outline>
    <contour>
      <point x="137" y="0" type="line"/>
      <point x="359" y="0" type="line"/>
      <point x="359" y="1023" type="line"/>
      <point x="137" y="1023" type="line"/>
    </contour>
    <contour>
      <point x="255" y="1023" type="move" name="top"/>
    </contour>
  </outline>
</glyph>
<glyph name="kgreenlandic" format="1">
  <advance width="1010"/>
  <unicode hex="0138"/>
  <outline>
    <contour>
      <point x="1073" y="0" type="line"/>
      <point x="647" y="583" type="line"/>
      <point x="1019" y="1023" type="line"/>
      <point x="763" y="1023" type="line"/>
      <point x="358" y="557" type="line"/>
      <point x="358" y="1023" type="line"/>
      <point x="136" y="1023" type="line"/>
      <point x="136" y="0" type="line"/>
      <point x="358" y="0" type="line"/>
      <point x="358" y="318" type="line"/>
      <point x="497" y="461" type="line"/>
      <point x="820" y="0" type="line"/>
    </contour>
  </outline>
</glyph>
<glyph name="Lslash" format="1">
  <advance width="1055"/>
  <unicode hex="0141"/>
  <outline>
    <contour>
      <point x="-33" y="573" type="line"/>
      <point x="650" y="833" type="line"/>
      <point x="650" y="1024" type="line"/>
      <point x="-33" y="764" type="line"/>
    </contour>
    <component base="L"/>
  </outline>
</glyph>
<glyph name="lslash" format="1">
  <advance width="421"/>
  <unicode hex="0142"/>
  <outline>
    <contour>
      <point x="-36" y="603" type="line"/>
      <point x="515" y="848" type="line"/>
      <point x="515" y="1032" type="line"/>
      <point x="-36" y="787" type="line"/>
    </contour>
    <component base="l"/>
  </outline>
</glyph>
<glyph name="Eng" format="1">
  <advance width="1496"/>
  <unicode hex="014A"/>
  <outline>
    <contour>
      <point x="876" y="-465" type="line"/>
      <point x="1160" y="-466"/>
      <point x="1362" y="-382"/>
      <point x="1362" y="-17" type="curve" smooth="yes"/>
      <point x="1362" y="1464" type="line"/>
      <point x="1163" y="1464" type="line"/>
      <point x="1163" y="352" type="line"/>
      <point x="386" y="1464" type="line"/>
      <point x="134" y="1464" type="line"/>
      <point x="134" y="0" type="line"/>
      <point x="340" y="0" type="line"/>
      <point x="340" y="1191" type="line"/>
      <point x="1162" y="0" type="line"/>
      <point x="1163" y="0" type="line"/>
      <point x="1163" y="-12" type="line" smooth="yes"/>
      <point x="1163" y="-226"/>
      <point x="1086" y="-295"/>
      <point x="879" y="-299" type="curve"/>
    </contour>
  </outline>
</glyph>
<glyph name="eng" format="1">
  <advance width="1142"/>
  <unicode hex="014B"/>
  <outline>
    <contour>
      <point x="543" y="-410" type="line"/>
      <point x="828" y="-410"/>
      <point x="1029" y="-327"/>
      <point x="1029" y="-26" type="curve" smooth="yes"/>
      <point x="1029" y="144" type="line"/>
      <point x="807" y="144" type="line"/>
      <point x="807" y="-20" type="line" smooth="yes"/>
      <point x="807" y="-170"/>
      <point x="753" y="-240"/>
      <point x="547" y="-243" type="curve"/>
    </contour>
    <component base="n"/>
  </outline>
</glyph>
<glyph name="OE" format="1">
  <advance width="2171"/>
  <unicode hex="0152"/>
  <outline>
    <contour>
      <point x="720" y="1315" type="curve" smooth="yes"/>
      <point x="1062" y="1325"/>
      <point x="1164" y="1160"/>
      <point x="1164" y="740" type="curve" smooth="yes"/>
      <point x="1164" y="700" type="line" smooth="yes"/>
      <point x="1164" y="289"/>
      <point x="1040" y="143"/>
      <point x="721" y="152" type="curve" smooth="yes"/>
      <point x="425" y="160"/>
      <point x="329" y="336"/>
      <point x="329" y="741" type="curve" smooth="yes"/>
      <point x="329" y="1130"/>
      <point x="432" y="1307"/>
    </contour>
    <contour>
      <point x="2121" y="166" type="line"/>
      <point x="1384" y="166" type="line"/>
      <point x="1384" y="694" type="line"/>
      <point x="2016" y="694" type="line"/>
      <point x="2016" y="862" type="line"/>
      <point x="1384" y="862" type="line"/>
      <point x="1384" y="1298" type="line"/>
      <point x="2110" y="1298" type="line"/>
      <point x="2110" y="1464" type="line"/>
      <point x="1163" y="1464" type="line"/>
      <point x="1163" y="1464"/>
      <point x="1163" y="1414"/>
      <point x="1163" y="1362" type="curve" smooth="yes"/>
      <point x="1163" y="1298" type="line"/>
      <point x="1083" y="1420"/>
      <point x="946" y="1491"/>
      <point x="721" y="1491" type="curve" smooth="yes"/>
      <point x="342" y="1491"/>
      <point x="99" y="1282"/>
      <point x="99" y="740" type="curve" smooth="yes"/>
      <point x="99" y="186"/>
      <point x="337" y="-25"/>
      <point x="720" y="-25" type="curve" smooth="yes"/>
      <point x="979" y="-25"/>
      <point x="1094" y="57"/>
      <point x="1164" y="170" type="curve"/>
      <point x="1164" y="103" type="line" smooth="yes"/>
      <point x="1164" y="83"/>
      <point x="1164.33" y="0.333333"/>
      <point x="1164" y="0" type="curve"/>
      <point x="2121" y="0" type="line"/>
    </contour>
  </outline>
</glyph>
<glyph name="OE" format="1">
  <advance width="2171"/>
  <unicode hex="0152"/>
  <outline>
    <contour>
      <point x="722" y="-25" type="curve" smooth="yes"/>
      <point x="982" y="-25"/>
      <point x="1091" y="54"/>
      <point x="1164" y="157" type="curve"/>
      <point x="1164" y="0" type="line"/>
      <point x="2121" y="0" type="line"/>
      <point x="2121" y="174" type="line"/>
      <point x="1395" y="174" type="line"/>
      <point x="1395" y="690" type="line"/>
      <point x="2019" y="690" type="line"/>
      <point x="2019" y="866" type="line"/>
      <point x="1395" y="866" type="line"/>
      <point x="1395" y="1290" type="line"/>
      <point x="2110" y="1290" type="line"/>
      <point x="2110" y="1464" type="line"/>
      <point x="1163" y="1464" type="line"/>
      <point x="1163" y="1309" type="line"/>
      <point x="1080" y="1423"/>
      <point x="945" y="1491"/>
      <point x="723" y="1491" type="curve" smooth="yes"/>
      <point x="344" y="1491"/>
      <point x="97" y="1282"/>
      <point x="97" y="740" type="curve" smooth="yes"/>
      <point x="97" y="186"/>
      <point x="339" y="-25"/>
    </contour>
    <contour>
      <point x="723" y="161" type="curve" smooth="yes"/>
      <point x="433" y="170"/>
      <point x="339" y="341"/>
      <point x="339" y="741" type="curve" smooth="yes"/>
      <point x="339" y="1130"/>
      <point x="443" y="1297"/>
      <point x="722" y="1306" type="curve" smooth="yes"/>
      <point x="1062" y="1317"/>
      <point x="1164" y="1149"/>
      <point x="1164" y="746" type="curve" smooth="yes"/>
      <point x="1164" y="285"/>
      <point x="1046" y="151"/>
    </contour>
  </outline>
</glyph>
<glyph name="Tbar" format="1">
  <advance width="1119"/>
  <unicode hex="0166"/>
  <outline>
    <contour>
      <point x="251" y="646" type="line"/>
      <point x="885" y="646" type="line"/>
      <point x="885" y="803" type="line"/>
      <point x="251" y="803" type="line"/>
    </contour>
    <component base="T"/>
  </outline>
</glyph>
<glyph name="florin" format="1">
  <advance width="1033"/>
  <unicode hex="0192"/>
  <outline>
    <contour>
      <point x="408" y="-172" type="line"/>
      <point x="636" y="805" type="line"/>
      <point x="849" y="805" type="line"/>
      <point x="868" y="895" type="line"/>
      <point x="656" y="895" type="line"/>
      <point x="740" y="1253" type="line" smooth="yes"/>
      <point x="763" y="1352"/>
      <point x="784" y="1449"/>
      <point x="858" y="1449" type="curve" smooth="yes"/>
      <point x="887.419" y="1449"/>
      <point x="912.029" y="1403.8"/>
      <point x="912.029" y="1303.98" type="curve" smooth="yes"/>
      <point x="912.029" y="1302.01"/>
      <point x="912.019" y="1300.02"/>
      <point x="912" y="1298" type="curve"/>
      <point x="1091" y="1298" type="line"/>
      <point x="1093" y="1488"/>
      <point x="981" y="1537"/>
      <point x="851" y="1537" type="curve" smooth="yes"/>
      <point x="651" y="1537"/>
      <point x="568" y="1399"/>
      <point x="530" y="1242" type="curve" smooth="yes"/>
      <point x="448" y="895" type="line"/>
      <point x="286" y="895" type="line"/>
      <point x="267" y="805" type="line"/>
      <point x="432" y="805" type="line"/>
      <point x="203" y="-170" type="line"/>
    </contour>
  </outline>
</glyph>
<glyph name="uni01C4" format="1">
  <advance width="2576"/>
  <unicode hex="01c4"/>
  <outline>
    <contour>
      <point x="2145" y="1613" type="line" smooth="no"/>
      <point x="1950" y="1613" type="line" smooth="no"/>
      <point x="1805" y="1933" type="line" smooth="no"/>
      <point x="1897" y="1933" type="line" smooth="no"/>
      <point x="2047" y="1705" type="line" smooth="no"/>
      <point x="2198" y="1933" type="line" smooth="no"/>
      <point x="2290" y="1933" type="line" smooth="no"/>
    </contour>
    <contour>
      <point x="1530" y="1356" type="line" smooth="no"/>
      <point x="1530" y="1464" type="line" smooth="no"/>
      <point x="2536" y="1464" type="line" smooth="no"/>
      <point x="2536" y="1383" type="line" smooth="no"/>
      <point x="1628" y="107" type="line" smooth="no"/>
      <point x="2541" y="107" type="line" smooth="no"/>
      <point x="2534" y="0" type="line" smooth="no"/>
      <point x="1447" y="0" type="line" smooth="no"/>
      <point x="1447" y="98" type="line" smooth="no"/>
      <point x="2345" y="1356" type="line" smooth="no"/>
    </contour>
    <contour>
      <point x="653" y="1350" type="curve" smooth="yes"/>
      <point x="294" y="1350" type="line" smooth="no"/>
      <point x="294" y="114" type="line" smooth="no"/>
      <point x="597" y="114" type="line" smooth="yes"/>
      <point x="1008" y="114"/>
      <point x="1144" y="289"/>
      <point x="1144" y="737" type="curve" smooth="yes"/>
      <point x="1144" y="1130"/>
      <point x="1037" y="1350"/>
    </contour>
    <contour>
      <point x="148" y="1464" type="line" smooth="no"/>
      <point x="652" y="1464" type="line" smooth="yes"/>
      <point x="1064" y="1464"/>
      <point x="1287" y="1280"/>
      <point x="1287" y="738" type="curve" smooth="yes"/>
      <point x="1287" y="203"/>
      <point x="1083" y="0"/>
      <point x="645" y="0" type="curve" smooth="yes"/>
      <point x="148" y="0" type="line" smooth="no"/>
    </contour>
    <contour>
      <point x="700" y="1464" type="move" smooth="yes"/>
    </contour>
  </outline>
</glyph>
<glyph name="uni01C8" format="1">
  <advance width="1502"/>
  <unicode hex="01C8"/>
  <outline>
    <contour>
      <point x="1234" y="-91" type="curve" smooth="yes"/>
      <point x="1234" y="1023" type="line"/>
      <point x="1376" y="1023" type="line"/>
      <point x="1376" y="-12" type="line" smooth="yes"/>
      <point x="1376" y="-217"/>
      <point x="1349" y="-325"/>
      <point x="1157" y="-325" type="curve" smooth="yes"/>
      <point x="1106" y="-325"/>
      <point x="1043" y="-312"/>
      <point x="995" y="-284" type="curve"/>
      <point x="1019" y="-177" type="line"/>
      <point x="1057" y="-191"/>
      <point x="1105" y="-208"/>
      <point x="1138" y="-208" type="curve" smooth="yes"/>
      <point x="1197" y="-208"/>
      <point x="1234" y="-182"/>
    </contour>
    <contour>
      <point x="1236" y="1242" type="line"/>
      <point x="1236" y="1421" type="line"/>
      <point x="1377" y="1421" type="line"/>
      <point x="1377" y="1242" type="line"/>
    </contour>
    <contour>
      <point x="1041" y="0" type="line"/>
      <point x="148" y="0" type="line"/>
      <point x="148" y="1464" type="line"/>
      <point x="294" y="1464" type="line"/>
      <point x="294" y="113" type="line"/>
      <point x="1041" y="113" type="line"/>
    </contour>
  </outline>
</glyph>
<glyph name="uni0237" format="1">
  <advance width="513"/>
  <unicode hex="0237"/>
  <outline>
    <contour>
      <point x="134" y="-380" type="curve" smooth="yes"/>
      <point x="323" y="-380"/>
      <point x="407" y="-304"/>
      <point x="407" y="-42" type="curve" smooth="yes"/>
      <point x="407" y="1023" type="line"/>
      <point x="195" y="1023" type="line"/>
      <point x="195" y="-91" type="line" smooth="yes"/>
      <point x="195" y="-177"/>
      <point x="155" y="-207"/>
      <point x="100" y="-207" type="curve" smooth="yes"/>
      <point x="64" y="-207"/>
      <point x="22" y="-195"/>
      <point x="-20" y="-176" type="curve"/>
      <point x="-61" y="-334" type="line"/>
      <point x="-13" y="-362"/>
      <point x="63" y="-380"/>
    </contour>
  </outline>
</glyph>
<glyph name="apostrophemod" format="1">
  <advance width="600"/>
  <unicode hex="02BC"/>
  <outline>
    <contour>
      <point x="283" y="1212" type="line"/>
      <point x="425" y="1291"/>
      <point x="460" y="1398"/>
      <point x="459" y="1602" type="curve"/>
      <point x="459" y="1756" type="line"/>
      <point x="182" y="1756" type="line"/>
      <point x="182" y="1508" type="line"/>
      <point x="305" y="1495" type="line"/>
      <point x="305" y="1423"/>
      <point x="244" y="1341"/>
      <point x="210" y="1308" type="curve"/>
    </contour>
  </outline>
</glyph>
<glyph name="circumflex" format="1">
  <advance width="838"/>
  <unicode hex="02C6"/>
  <outline>
    <contour>
      <point x="144" y="1154" type="line"/>
      <point x="293" y="1154" type="line"/>
      <point x="427" y="1367" type="line"/>
      <point x="563" y="1154" type="line"/>
      <point x="712" y="1154" type="line"/>
      <point x="561" y="1474" type="line"/>
      <point x="294" y="1474" type="line"/>
    </contour>
    <contour>
      <point x="419" y="1023" type="move" name="_top"/>
    </contour>
  </outline>
</glyph>
<glyph name="caron" format="1">
  <advance width="838"/>
  <unicode hex="02C7"/>
  <outline>
    <contour>
      <point x="291" y="1154" type="line"/>
      <point x="558" y="1154" type="line"/>
      <point x="709" y="1474" type="line"/>
      <point x="560" y="1474" type="line"/>
      <point x="424" y="1261" type="line"/>
      <point x="289" y="1474" type="line"/>
      <point x="141" y="1474" type="line"/>
    </contour>
    <contour>
      <point x="419" y="1023" type="move" name="_top"/>
    </contour>
  </outline>
</glyph>
<glyph name="breve" format="1">
  <advance width="805"/>
  <unicode hex="02D8"/>
  <outline>
    <contour>
      <point x="402" y="1191" type="curve" smooth="yes"/>
      <point x="538" y="1191"/>
      <point x="678" y="1267"/>
      <point x="682" y="1470" type="curve"/>
      <point x="500" y="1470" type="line"/>
      <point x="500" y="1409"/>
      <point x="496" y="1354"/>
      <point x="402" y="1354" type="curve" smooth="yes"/>
      <point x="309" y="1354"/>
      <point x="305" y="1409"/>
      <point x="305" y="1470" type="curve"/>
      <point x="123" y="1470" type="line"/>
      <point x="127" y="1267"/>
      <point x="267" y="1191"/>
    </contour>
    <contour>
      <point x="402.5" y="1023" type="move" name="_top"/>
    </contour>
  </outline>
</glyph>
<glyph name="dotaccent" format="1">
  <advance width="434"/>
  <unicode hex="02D9"/>
  <outline>
    <contour>
      <point x="85" y="766" type="line"/>
      <point x="345" y="766" type="line"/>
      <point x="345" y="526" type="line"/>
      <point x="85" y="526" type="line"/>
    </contour>
  </outline>
</glyph>
<glyph name="ring" format="1">
  <advance width="728"/>
  <unicode hex="02DA"/>
  <outline>
    <contour>
      <point x="365" y="1349" type="curve"/>
      <point x="440" y="1349"/>
      <point x="483" y="1293"/>
      <point x="483" y="1219" type="curve"/>
      <point x="483" y="1145"/>
      <point x="440" y="1089"/>
      <point x="365" y="1089" type="curve"/>
      <point x="290" y="1089"/>
      <point x="247" y="1145"/>
      <point x="247" y="1219" type="curve"/>
      <point x="247" y="1293"/>
      <point x="290" y="1349"/>
    </contour>
    <contour>
      <point x="365" y="964" type="curve"/>
      <point x="533" y="964"/>
      <point x="627" y="1086"/>
      <point x="627" y="1219" type="curve"/>
      <point x="627" y="1352"/>
      <point x="533" y="1474"/>
      <point x="365" y="1474" type="curve"/>
      <point x="197" y="1474"/>
      <point x="103" y="1352"/>
      <point x="103" y="1219" type="curve"/>
      <point x="103" y="1086"/>
      <point x="197" y="964"/>
    </contour>
  </outline>
</glyph>
<glyph name="ogonek" format="1">
  <advance width="462"/>
  <unicode hex="02DB"/>
  <outline>
    <contour>
      <point x="404" y="-382" type="curve"/>
      <point x="404" y="-257" type="line"/>
      <point x="387.285" y="-260.826"/>
      <point x="373.125" y="-262.584"/>
      <point x="361.169" y="-262.584" type="curve" smooth="yes"/>
      <point x="313.756" y="-262.584"/>
      <point x="301" y="-234.938"/>
      <point x="301" y="-199" type="curve" smooth="yes"/>
      <point x="301" y="-141"/>
      <point x="326" y="-83"/>
      <point x="361" y="0" type="curve"/>
      <point x="256" y="0" type="line"/>
      <point x="193" y="-65"/>
      <point x="117" y="-151"/>
      <point x="117" y="-241" type="curve" smooth="yes"/>
      <point x="117" y="-307.273"/>
      <point x="171.215" y="-394.134"/>
      <point x="308.071" y="-394.134" type="curve" smooth="yes"/>
      <point x="336.418" y="-394.134"/>
      <point x="368.31" y="-390.408"/>
    </contour>
    <contour>
      <point x="306" y="0" type="move" name="_ogonek"/>
    </contour>
  </outline>
</glyph>
<glyph name="hungarumlaut" format="1">
  <advance width="745"/>
  <unicode hex="02DD"/>
  <outline>
    <contour>
      <point x="112" y="1492" type="line"/>
      <point x="391" y="1492" type="line"/>
      <point x="145" y="1152" type="line"/>
      <point x="47" y="1152" type="line"/>
    </contour>
    <contour>
      <point x="467" y="1492" type="line"/>
      <point x="755" y="1492" type="line"/>
      <point x="483" y="1152" type="line"/>
      <point x="375" y="1152" type="line"/>
    </contour>
  </outline>
</glyph>
<glyph name="uni0307" format="1">
  <advance width="539"/>
  <unicode hex="0307"/>
  <outline>
    <contour>
      <point x="270" y="1103" type="curve" smooth="yes"/>
      <point x="189" y="1103"/>
      <point x="148" y="1166"/>
      <point x="148" y="1228" type="curve" smooth="yes"/>
      <point x="148" y="1290"/>
      <point x="189" y="1352"/>
      <point x="270" y="1352" type="curve" smooth="yes"/>
      <point x="351" y="1352"/>
      <point x="392" y="1290"/>
      <point x="392" y="1228" type="curve" smooth="yes"/>
      <point x="392" y="1166"/>
      <point x="351" y="1103"/>
    </contour>
    <contour>
      <point x="270" y="1023" type="move" name="_top"/>
    </contour>
  </outline>
</glyph>
<glyph name="dblgravecmb" format="1">
  <advance width="745"/>
  <unicode hex="030F"/>
  <outline>
    <contour>
      <point x="317" y="1152" type="line"/>
      <point x="430" y="1152" type="line"/>
      <point x="344" y="1495" type="line"/>
      <point x="42" y="1495" type="line"/>
    </contour>
    <contour>
      <point x="664" y="1152" type="line"/>
      <point x="767" y="1152" type="line"/>
      <point x="708" y="1495" type="line"/>
      <point x="415" y="1495" type="line"/>
    </contour>
  </outline>
</glyph>
<glyph name="uni030F" format="1">
  <advance width="745"/>
  <unicode hex="030F"/>
  <outline>
    <contour>
      <point x="317" y="1152" type="line"/>
      <point x="430" y="1152" type="line"/>
      <point x="344" y="1495" type="line"/>
      <point x="42" y="1495" type="line"/>
    </contour>
    <contour>
      <point x="664" y="1152" type="line"/>
      <point x="767" y="1152" type="line"/>
      <point x="708" y="1495" type="line"/>
      <point x="415" y="1495" type="line"/>
    </contour>
  </outline>
</glyph>
<glyph name="uni0311" format="1">
  <advance width="805"/>
  <unicode hex="0311"/>
  <outline>
    <contour>
      <point x="402" y="1438" type="curve" smooth="yes"/>
      <point x="539" y="1438"/>
      <point x="687" y="1362"/>
      <point x="691" y="1162" type="curve"/>
      <point x="518" y="1162" type="line"/>
      <point x="518" y="1229"/>
      <point x="496" y="1283"/>
      <point x="402" y="1283" type="curve" smooth="yes"/>
      <point x="308" y="1283"/>
      <point x="286" y="1229"/>
      <point x="286" y="1162" type="curve"/>
      <point x="113" y="1162" type="line"/>
      <point x="117" y="1362"/>
      <point x="265" y="1438"/>
    </contour>
  </outline>
</glyph>
<glyph name="uni0312" format="1">
  <advance width="600"/>
  <unicode hex="0312"/>
  <outline>
    <contour>
      <point x="182" y="1205" type="line"/>
      <point x="459" y="1205" type="line"/>
      <point x="459" y="1453" type="line"/>
      <point x="337" y="1466" type="line"/>
      <point x="336" y="1538"/>
      <point x="397" y="1620"/>
      <point x="432" y="1653" type="curve"/>
      <point x="359" y="1750" type="line"/>
      <point x="218.895" y="1671.07"/>
      <point x="181.98" y="1565.85"/>
      <point x="181.98" y="1367.12" type="curve" smooth="yes"/>
      <point x="181.98" y="1364.43"/>
      <point x="181.987" y="1361.72"/>
      <point x="182" y="1359" type="curve" smooth="yes"/>
    </contour>
  </outline>
</glyph>
<glyph name="uni0326" format="1">
  <advance width="409"/>
  <unicode hex="0326"/>
  <outline>
    <contour>
      <point x="181" y="-723" type="line"/>
      <point x="338" y="-630"/>
      <point x="363" y="-520"/>
      <point x="363" y="-310" type="curve" smooth="yes"/>
      <point x="363" y="-168" type="line"/>
      <point x="83" y="-168" type="line"/>
      <point x="83" y="-419" type="line"/>
      <point x="203" y="-433" type="line"/>
      <point x="203" y="-517"/>
      <point x="136" y="-592"/>
      <point x="106" y="-621" type="curve"/>
    </contour>
    <contour>
      <point x="204.5" y="0" type="move" name="_bot"/>
    </contour>
  </outline>
</glyph>
<glyph name="Delta" format="1">
  <advance width="1332"/>
  <unicode hex="0394"/>
  <outline>
    <contour>
      <point x="32" y="0" type="line"/>
      <point x="1309" y="0" type="line"/>
      <point x="765" y="1482" type="line"/>
      <point x="567" y="1482" type="line"/>
    </contour>
    <contour>
      <point x="226" y="151" type="line"/>
      <point x="630" y="1307" type="line"/>
      <point x="1040" y="151" type="line"/>
    </contour>
  </outline>
</glyph>
<glyph name="mu" format="1">
  <advance width="1119"/>
  <unicode hex="03BC"/>
  <outline>
    <contour>
      <point x="312" y="-224" type="line"/>
      <point x="312" y="-224"/>
      <point x="312" y="1023"/>
      <point x="312" y="1023" type="curve"/>
      <point x="100" y="1023" type="line"/>
      <point x="100" y="-224" type="line"/>
    </contour>
    <component base="u"/>
  </outline>
</glyph>
<glyph name="quoteleft" format="1">
  <advance width="330"/>
  <unicode hex="2018"/>
  <outline>
    <contour>
      <point x="18" y="929" type="line"/>
      <point x="314" y="929" type="line"/>
      <point x="314" y="1175" type="line"/>
      <point x="195" y="1192" type="line"/>
      <point x="195" y="1316"/>
      <point x="222" y="1349"/>
      <point x="294" y="1470" type="curve"/>
      <point x="293" y="1470"/>
      <point x="177" y="1531"/>
      <point x="177" y="1532" type="curve"/>
      <point x="20" y="1412"/>
      <point x="18" y="1248"/>
      <point x="18" y="1069" type="curve" smooth="yes"/>
    </contour>
  </outline>
</glyph>
<glyph name="quoteright" format="1">
  <advance width="330"/>
  <unicode hex="2019"/>
  <outline>
    <contour>
      <point x="315" y="1533" type="line"/>
      <point x="19" y="1533" type="line"/>
      <point x="19" y="1287" type="line"/>
      <point x="138" y="1270" type="line"/>
      <point x="138" y="1146"/>
      <point x="111" y="1113"/>
      <point x="39" y="992" type="curve"/>
      <point x="40" y="992"/>
      <point x="156" y="931"/>
      <point x="156" y="930" type="curve"/>
      <point x="313" y="1050"/>
      <point x="315" y="1214"/>
      <point x="315" y="1393" type="curve" smooth="yes"/>
    </contour>
  </outline>
</glyph>
<glyph name="quotesinglbase" format="1">
  <advance width="436"/>
  <unicode hex="201A"/>
  <outline>
    <contour>
      <point x="155" y="-382" type="line"/>
      <point x="315" y="-269"/>
      <point x="312" y="-87"/>
      <point x="316" y="93" type="curve"/>
      <point x="130" y="93" type="line"/>
      <point x="130" y="-81" type="line" smooth="yes"/>
      <point x="130" y="-82"/>
      <point x="188" y="-99"/>
      <point x="188" y="-99" type="curve"/>
      <point x="185" y="-219"/>
      <point x="134" y="-296"/>
      <point x="109" y="-319" type="curve"/>
    </contour>
  </outline>
</glyph>
<glyph name="quotedblleft" format="1">
  <advance width="630"/>
  <unicode hex="201C"/>
  <outline>
    <contour>
      <point x="6" y="932" type="line"/>
      <point x="256" y="932" type="line"/>
      <point x="256" y="1169" type="line"/>
      <point x="133" y="1187" type="line"/>
      <point x="137" y="1342"/>
      <point x="204" y="1428"/>
      <point x="235" y="1457" type="curve"/>
      <point x="175" y="1536" type="line"/>
      <point x="8" y="1419"/>
      <point x="6" y="1247"/>
      <point x="6" y="1053" type="curve" smooth="yes"/>
      <point x="6" y="1050"/>
      <point x="6" y="1047"/>
      <point x="6" y="1044" type="curve" smooth="yes"/>
    </contour>
    <contour>
      <point x="382" y="932" type="line"/>
      <point x="632" y="932" type="line"/>
      <point x="632" y="1169" type="line"/>
      <point x="501" y="1186" type="line"/>
      <point x="505" y="1342"/>
      <point x="572" y="1428"/>
      <point x="604" y="1457" type="curve"/>
      <point x="543" y="1536" type="line"/>
      <point x="373" y="1416"/>
      <point x="389" y="1244"/>
      <point x="382" y="1044" type="curve"/>
    </contour>
  </outline>
</glyph>
<glyph name="quotedblright" format="1">
  <advance width="631"/>
  <unicode hex="201D"/>
  <outline>
    <contour>
      <point x="83" y="928" type="line"/>
      <point x="285" y="1071"/>
      <point x="256" y="1299"/>
      <point x="261" y="1527" type="curve"/>
      <point x="10" y="1527" type="line"/>
      <point x="10" y="1309" type="line" smooth="yes"/>
      <point x="10" y="1308"/>
      <point x="124" y="1285"/>
      <point x="124" y="1286" type="curve"/>
      <point x="121" y="1134"/>
      <point x="56" y="1037"/>
      <point x="23" y="1008" type="curve"/>
    </contour>
    <contour>
      <point x="450" y="928" type="line"/>
      <point x="651" y="1070"/>
      <point x="629" y="1300"/>
      <point x="636" y="1527" type="curve"/>
      <point x="386" y="1527" type="line"/>
      <point x="386" y="1309" type="line"/>
      <point x="489" y="1285" type="line"/>
      <point x="485" y="1132"/>
      <point x="419" y="1035"/>
      <point x="388" y="1008" type="curve"/>
    </contour>
  </outline>
</glyph>
<glyph name="quotedblbase" format="1">
  <advance width="744"/>
  <unicode hex="201E"/>
  <outline>
    <contour>
      <point x="104" y="-445" type="line"/>
      <point x="306" y="-302"/>
      <point x="302" y="-72"/>
      <point x="307" y="156" type="curve"/>
      <point x="70" y="156" type="line"/>
      <point x="70" y="-64" type="line"/>
      <point x="68" y="-65"/>
      <point x="145" y="-87"/>
      <point x="145" y="-87" type="curve"/>
      <point x="142" y="-239"/>
      <point x="77" y="-336"/>
      <point x="45" y="-365" type="curve"/>
    </contour>
    <contour>
      <point x="486" y="-445" type="line"/>
      <point x="688" y="-302"/>
      <point x="684" y="-72"/>
      <point x="690" y="156" type="curve"/>
      <point x="452" y="156" type="line"/>
      <point x="452" y="-64" type="line" smooth="yes"/>
      <point x="452" y="-65"/>
      <point x="528" y="-87"/>
      <point x="528" y="-87" type="curve"/>
      <point x="524" y="-239"/>
      <point x="459" y="-336"/>
      <point x="428" y="-365" type="curve"/>
    </contour>
  </outline>
</glyph>
<glyph name="dagger" format="1">
  <advance width="1117"/>
  <unicode hex="2020"/>
  <outline>
    <contour>
      <point x="447" y="0" type="line"/>
      <point x="685" y="0" type="line"/>
      <point x="685" y="928" type="line"/>
      <point x="1003" y="928" type="line"/>
      <point x="1003" y="1109" type="line"/>
      <point x="685" y="1109" type="line"/>
      <point x="685" y="1464" type="line"/>
      <point x="447" y="1464" type="line"/>
      <point x="447" y="1109" type="line"/>
      <point x="114" y="1109" type="line"/>
      <point x="114" y="928" type="line"/>
      <point x="447" y="928" type="line"/>
    </contour>
  </outline>
</glyph>
<glyph name="daggerdbl" format="1">
  <advance width="1117"/>
  <unicode hex="2021"/>
  <outline>
    <contour>
      <point x="447" y="0" type="line"/>
      <point x="685" y="0" type="line"/>
      <point x="685" y="445" type="line"/>
      <point x="1003" y="445" type="line"/>
      <point x="1003" y="625" type="line"/>
      <point x="685" y="625" type="line"/>
      <point x="685" y="928" type="line"/>
      <point x="1003" y="928" type="line"/>
      <point x="1003" y="1109" type="line"/>
      <point x="685" y="1109" type="line"/>
      <point x="685" y="1464" type="line"/>
      <point x="447" y="1464" type="line"/>
      <point x="447" y="1109" type="line"/>
      <point x="114" y="1109" type="line"/>
      <point x="114" y="928" type="line"/>
      <point x="447" y="928" type="line"/>
      <point x="447" y="625" type="line"/>
      <point x="116" y="625" type="line"/>
      <point x="116" y="445" type="line"/>
      <point x="447" y="445" type="line"/>
    </contour>
  </outline>
</glyph>
<glyph name="guilsinglright" format="1">
  <advance width="528"/>
  <unicode hex="203A"/>
  <outline>
    <contour>
      <point x="36" y="227" type="line"/>
      <point x="502" y="493" type="line"/>
      <point x="502" y="805" type="line"/>
      <point x="36" y="1072" type="line"/>
      <point x="36" y="849" type="line"/>
      <point x="346" y="650" type="line"/>
      <point x="36" y="448" type="line"/>
    </contour>
  </outline>
</glyph>
<glyph name="foursuperior" format="1">
  <advance width="1217"/>
  <unicode hex="2074"/>
  <outline>
    <contour>
      <point x="746" y="812" type="line"/>
      <point x="922" y="812" type="line"/>
      <point x="922" y="958" type="line"/>
      <point x="1026" y="958" type="line"/>
      <point x="1026" y="1086" type="line"/>
      <point x="922" y="1086" type="line"/>
      <point x="922" y="1535" type="line"/>
      <point x="692" y="1535" type="line"/>
      <point x="407" y="1062" type="line"/>
      <point x="407" y="958" type="line"/>
      <point x="746" y="958" type="line"/>
    </contour>
    <contour>
      <point x="586" y="1086" type="line"/>
      <point x="746" y="1378" type="line"/>
      <point x="746" y="1086" type="line"/>
    </contour>
  </outline>
</glyph>
<glyph name="uni2074" format="1">
  <advance width="1441"/>
  <unicode hex="2074"/>
  <outline>
    <contour>
      <point x="690" y="1024" type="line"/>
      <point x="520" y="1024" type="line"/>
      <point x="690" y="1323" type="line"/>
    </contour>
    <contour>
      <point x="350" y="902" type="line"/>
      <point x="690" y="902" type="line"/>
      <point x="690" y="781" type="line"/>
      <point x="854" y="781" type="line"/>
      <point x="854" y="902" type="line"/>
      <point x="962" y="902" type="line"/>
      <point x="962" y="1024" type="line"/>
      <point x="854" y="1024" type="line"/>
      <point x="854" y="1474" type="line"/>
      <point x="639" y="1474" type="line"/>
      <point x="350" y="1001" type="line"/>
    </contour>
  </outline>
</glyph>
<glyph name="Euro" format="1">
  <advance width="1275"/>
  <unicode hex="20AC"/>
  <outline>
    <contour>
      <point x="-56" y="521" type="line"/>
      <point x="678" y="521" type="line"/>
      <point x="678" y="672" type="line"/>
      <point x="-56" y="672" type="line"/>
    </contour>
    <contour>
      <point x="-56" y="781" type="line"/>
      <point x="678" y="781" type="line"/>
      <point x="678" y="932" type="line"/>
      <point x="-56" y="932" type="line"/>
    </contour>
    <component base="C"/>
  </outline>
</glyph>
<glyph name="afii61289" format="1">
  <advance width="817"/>
  <unicode hex="2113"/>
  <outline>
    <contour>
      <point x="414" y="882" type="line"/>
      <point x="414" y="319" type="line" smooth="yes"/>
      <point x="414" y="194"/>
      <point x="467" y="149"/>
      <point x="541" y="149" type="curve" smooth="yes"/>
      <point x="576" y="149"/>
      <point x="623" y="161"/>
      <point x="671" y="181" type="curve"/>
      <point x="706" y="32" type="line"/>
      <point x="641" y="1"/>
      <point x="571" y="-16"/>
      <point x="506" y="-16" type="curve" smooth="yes"/>
      <point x="347.488" y="-16"/>
      <point x="191.884" y="58.6384"/>
      <point x="191.884" y="287.126" type="curve" smooth="yes"/>
      <point x="191.884" y="290.713"/>
      <point x="191.923" y="294.337"/>
      <point x="192" y="298" type="curve" smooth="yes"/>
      <point x="192" y="735" type="line"/>
      <point x="44" y="618" type="line"/>
      <point x="-19" y="709" type="line"/>
      <point x="192" y="879" type="line"/>
      <point x="192" y="1254" type="line" smooth="yes"/>
      <point x="192" y="1469"/>
      <point x="342" y="1577"/>
      <point x="508" y="1577" type="curve" smooth="yes"/>
      <point x="665" y="1577"/>
      <point x="768" y="1479"/>
      <point x="768" y="1346" type="curve" smooth="yes"/>
      <point x="768" y="1241"/>
      <point x="703" y="1113"/>
      <point x="550" y="990" type="curve"/>
    </contour>
    <contour>
      <point x="662" y="1365" type="curve" smooth="yes"/>
      <point x="662" y="1437"/>
      <point x="610" y="1477"/>
      <point x="549" y="1477" type="curve"/>
      <point x="451" y="1463"/>
      <point x="381" y="1392"/>
      <point x="381" y="1231" type="curve" smooth="yes"/>
      <point x="381" y="1221"/>
      <point x="387" y="963"/>
      <point x="395" y="963" type="curve" smooth="yes"/>
      <point x="406" y="963"/>
      <point x="482" y="1024"/>
      <point x="482" y="1044" type="curve"/>
      <point x="613" y="1150"/>
      <point x="662" y="1290"/>
    </contour>
  </outline>
</glyph>
<glyph name="partialdiff" format="1">
  <advance width="1202"/>
  <unicode hex="2202"/>
  <outline>
    <contour>
      <point x="610" y="908" type="curve" smooth="yes"/>
      <point x="373.654" y="908"/>
      <point x="117" y="723.853"/>
      <point x="117" y="395" type="curve" smooth="yes"/>
      <point x="117" y="170"/>
      <point x="255" y="-24"/>
      <point x="534" y="-24" type="curve" smooth="yes"/>
      <point x="907.695" y="-24"/>
      <point x="1072" y="281.552"/>
      <point x="1072" y="674" type="curve" smooth="yes"/>
      <point x="1072" y="1066"/>
      <point x="894" y="1432"/>
      <point x="332" y="1432" type="curve"/>
      <point x="317" y="1286" type="line"/>
      <point x="705" y="1286"/>
      <point x="859" y="1008"/>
      <point x="864" y="774" type="curve"/>
      <point x="811" y="864"/>
      <point x="717" y="908"/>
    </contour>
    <contour>
      <point x="339" y="397" type="curve" smooth="yes"/>
      <point x="339" y="594.616"/>
      <point x="461.6" y="736"/>
      <point x="613" y="736" type="curve" smooth="yes"/>
      <point x="707" y="736"/>
      <point x="769" y="689"/>
      <point x="852" y="588" type="curve"/>
      <point x="853" y="579"/>
      <point x="853" y="570"/>
      <point x="853" y="561" type="curve" smooth="yes"/>
      <point x="853" y="543"/>
      <point x="851" y="528"/>
      <point x="850" y="511" type="curve" smooth="yes"/>
      <point x="830" y="322"/>
      <point x="739" y="146"/>
      <point x="564" y="146" type="curve" smooth="yes"/>
      <point x="438" y="146"/>
      <point x="339" y="233"/>
    </contour>
  </outline>
</glyph>
<glyph name="summation" format="1">
  <advance width="1220"/>
  <unicode hex="2211"/>
  <outline>
    <contour>
      <point x="161" y="-18" type="line"/>
      <point x="1142" y="-18" type="line"/>
      <point x="1142" y="155" type="line"/>
      <point x="381" y="155" type="line"/>
      <point x="911" y="680" type="line"/>
      <point x="911" y="789" type="line"/>
      <point x="384" y="1325" type="line"/>
      <point x="1142" y="1325" type="line"/>
      <point x="1142" y="1491" type="line"/>
      <point x="161" y="1491" type="line"/>
      <point x="161" y="1318" type="line"/>
      <point x="717" y="737" type="line"/>
      <point x="161" y="173" type="line"/>
    </contour>
  </outline>
</glyph>
<glyph name="minus" format="1">
  <advance width="1024"/>
  <unicode hex="2212"/>
  <outline>
    <contour>
      <point x="135" y="654" type="line"/>
      <point x="803" y="654" type="line"/>
      <point x="803" y="784" type="line"/>
      <point x="135" y="784" type="line"/>
    </contour>
  </outline>
</glyph>
<glyph name="radical" format="1">
  <advance width="1393"/>
  <unicode hex="221A"/>
  <outline>
    <contour>
      <point x="496" y="0" type="line"/>
      <point x="645" y="0" type="line"/>
      <point x="1278" y="1464" type="line"/>
      <point x="1048" y="1464" type="line"/>
      <point x="552" y="251" type="line"/>
      <point x="335" y="658" type="line"/>
      <point x="110" y="658" type="line"/>
    </contour>
  </outline>
</glyph>
<glyph name="infinity" format="1">
  <advance width="1597"/>
  <unicode hex="221E"/>
  <outline>
    <contour>
      <point x="1552" y="738" type="curve" smooth="yes"/>
      <point x="1552" y="952.273"/>
      <point x="1428.13" y="1170.07"/>
      <point x="1174.81" y="1170.07" type="curve" smooth="yes"/>
      <point x="1030.71" y="1170.07"/>
      <point x="872.51" y="1081.85"/>
      <point x="783" y="953" type="curve"/>
      <point x="721" y="1074"/>
      <point x="576" y="1159"/>
      <point x="430" y="1159" type="curve" smooth="yes"/>
      <point x="166" y="1159"/>
      <point x="34" y="945"/>
      <point x="34" y="732" type="curve" smooth="yes"/>
      <point x="34" y="516"/>
      <point x="167" y="300"/>
      <point x="432" y="300" type="curve" smooth="yes"/>
      <point x="574" y="300"/>
      <point x="709" y="395"/>
      <point x="756" y="533" type="curve"/>
      <point x="831" y="393"/>
      <point x="998" y="296"/>
      <point x="1166" y="296" type="curve" smooth="yes"/>
      <point x="1166.57" y="295.998"/>
      <point x="1167.15" y="295.997"/>
      <point x="1167.72" y="295.997" type="curve" smooth="yes"/>
      <point x="1423.58" y="295.997"/>
      <point x="1552" y="518.492"/>
    </contour>
    <contour>
      <point x="430" y="516" type="curve" smooth="yes"/>
      <point x="289" y="516"/>
      <point x="219" y="622"/>
      <point x="219" y="729" type="curve" smooth="yes"/>
      <point x="219" y="834"/>
      <point x="288" y="939"/>
      <point x="426" y="939" type="curve" smooth="yes"/>
      <point x="530" y="939"/>
      <point x="640" y="836"/>
      <point x="692" y="689" type="curve"/>
      <point x="636" y="587"/>
      <point x="528" y="516"/>
    </contour>
    <contour>
      <point x="1162" y="509" type="curve" smooth="yes"/>
      <point x="1032" y="509"/>
      <point x="905" y="632"/>
      <point x="850" y="809" type="curve"/>
      <point x="910" y="889"/>
      <point x="1025" y="942"/>
      <point x="1136" y="942" type="curve" smooth="yes"/>
      <point x="1223" y="942"/>
      <point x="1367" y="894"/>
      <point x="1367" y="719" type="curve" smooth="yes"/>
      <point x="1367" y="612"/>
      <point x="1299" y="509"/>
    </contour>
  </outline>
</glyph>
<glyph name="integral" format="1">
  <advance width="833"/>
  <unicode hex="222B"/>
  <outline>
    <contour>
      <point x="185" y="-304" type="curve" smooth="yes"/>
      <point x="366" y="-304"/>
      <point x="483" y="-255"/>
      <point x="507" y="36" type="curve" smooth="yes"/>
      <point x="600" y="1143" type="line" smooth="yes"/>
      <point x="611" y="1279"/>
      <point x="627" y="1304"/>
      <point x="712" y="1304" type="curve" smooth="yes"/>
      <point x="742" y="1304"/>
      <point x="783" y="1292"/>
      <point x="814" y="1275" type="curve"/>
      <point x="883" y="1423" type="line"/>
      <point x="839" y="1448"/>
      <point x="756" y="1474"/>
      <point x="700" y="1474" type="curve" smooth="yes"/>
      <point x="519" y="1474"/>
      <point x="403" y="1425"/>
      <point x="379" y="1134" type="curve" smooth="yes"/>
      <point x="285" y="27" type="line" smooth="yes"/>
      <point x="274" y="-109"/>
      <point x="258" y="-134"/>
      <point x="173" y="-134" type="curve" smooth="yes"/>
      <point x="143" y="-134"/>
      <point x="102" y="-123"/>
      <point x="71" y="-105" type="curve"/>
      <point x="2" y="-254" type="line"/>
      <point x="46" y="-278"/>
      <point x="129" y="-304"/>
    </contour>
  </outline>
</glyph>
<glyph name="approxequal" format="1">
  <advance width="1086"/>
  <unicode hex="2248"/>
  <outline>
    <contour>
      <point x="816" y="543" type="curve" smooth="yes"/>
      <point x="706.898" y="543"/>
      <point x="502.454" y="663.41"/>
      <point x="272.501" y="663.41" type="curve" smooth="yes"/>
      <point x="188.263" y="663.41"/>
      <point x="119.039" y="630.623"/>
      <point x="105" y="406" type="curve"/>
      <point x="223" y="406" type="line"/>
      <point x="222" y="491"/>
      <point x="256" y="520"/>
      <point x="315" y="520" type="curve" smooth="yes"/>
      <point x="430" y="520"/>
      <point x="639" y="410"/>
      <point x="860" y="399" type="curve" smooth="yes"/>
      <point x="864.035" y="398.811"/>
      <point x="867.987" y="398.715"/>
      <point x="871.857" y="398.715" type="curve" smooth="yes"/>
      <point x="970.638" y="398.715"/>
      <point x="1016.34" y="461.315"/>
      <point x="1025" y="648" type="curve"/>
      <point x="906" y="648" type="line"/>
      <point x="901" y="569"/>
      <point x="869" y="543"/>
    </contour>
    <contour>
      <point x="767" y="885" type="curve" smooth="yes"/>
      <point x="657.898" y="885"/>
      <point x="453.454" y="1005.41"/>
      <point x="223.501" y="1005.41" type="curve" smooth="yes"/>
      <point x="139.263" y="1005.41"/>
      <point x="70.0389" y="972.623"/>
      <point x="56" y="748" type="curve"/>
      <point x="174" y="748" type="line"/>
      <point x="173" y="833"/>
      <point x="207" y="862"/>
      <point x="266" y="862" type="curve" smooth="yes"/>
      <point x="381" y="862"/>
      <point x="590" y="752"/>
      <point x="811" y="741" type="curve" smooth="yes"/>
      <point x="815.035" y="740.811"/>
      <point x="818.987" y="740.715"/>
      <point x="822.857" y="740.715" type="curve" smooth="yes"/>
      <point x="921.638" y="740.715"/>
      <point x="967.339" y="803.315"/>
      <point x="976" y="990" type="curve"/>
      <point x="857" y="990" type="line"/>
      <point x="852" y="911"/>
      <point x="820" y="885"/>
    </contour>
  </outline>
</glyph>
<glyph name="notequal" format="1">
  <advance width="919"/>
  <unicode hex="2260"/>
  <outline>
    <contour>
      <point x="366" y="183" type="line"/>
      <point x="477" y="499" type="line"/>
      <point x="871" y="499" type="line"/>
      <point x="871" y="653" type="line"/>
      <point x="532" y="653" type="line"/>
      <point x="564" y="748" type="line"/>
      <point x="871" y="748" type="line"/>
      <point x="871" y="902" type="line"/>
      <point x="619" y="902" type="line"/>
      <point x="720" y="1186" type="line"/>
      <point x="537" y="1227" type="line"/>
      <point x="427" y="902" type="line"/>
      <point x="48" y="902" type="line"/>
      <point x="48" y="748" type="line"/>
      <point x="375" y="748" type="line"/>
      <point x="343" y="653" type="line"/>
      <point x="48" y="653" type="line"/>
      <point x="48" y="499" type="line"/>
      <point x="291" y="499" type="line"/>
      <point x="198" y="224" type="line"/>
    </contour>
  </outline>
</glyph>
<glyph name="uniFB02" format="1">
  <advance width="1072"/>
  <unicode hex="fb02"/>
  <outline>
    <contour>
      <point x="468" y="1365" type="curve" smooth="yes"/>
      <point x="368" y="1365"/>
      <point x="367" y="1275"/>
      <point x="367" y="1137" type="curve" smooth="yes"/>
      <point x="367" y="1023" type="line" smooth="no"/>
      <point x="795" y="1023" type="line" smooth="no"/>
      <point x="795" y="1474" type="line" smooth="no"/>
      <point x="937" y="1474" type="line" smooth="no"/>
      <point x="937" y="0" type="line" smooth="no"/>
      <point x="795" y="0" type="line" smooth="no"/>
      <point x="795" y="917" type="line" smooth="no"/>
      <point x="367" y="917" type="line" smooth="no"/>
      <point x="367" y="-1" type="line" smooth="no"/>
      <point x="225" y="-1" type="line" smooth="no"/>
      <point x="225" y="917" type="line" smooth="no"/>
      <point x="52" y="917" type="line" smooth="no"/>
      <point x="52" y="1023" type="line" smooth="no"/>
      <point x="225" y="1023" type="line" smooth="no"/>
      <point x="225" y="1140" type="line" smooth="yes"/>
      <point x="225" y="1361"/>
      <point x="284" y="1471"/>
      <point x="459" y="1471" type="curve" smooth="yes"/>
      <point x="517" y="1471"/>
      <point x="571" y="1454"/>
      <point x="615" y="1430" type="curve" smooth="no"/>
      <point x="581" y="1338" type="line" smooth="no"/>
      <point x="541" y="1353"/>
      <point x="500" y="1365"/>
    </contour>
  </outline>
</glyph>
<glyph name="commaaccent" format="1">
  <advance width="500"/>
  <outline>
    <contour>
      <point x="250" y="0" type="move" name="_bot"/>
    </contour>
  </outline>
</glyph>
<glyph name="dotlessj" format="1">
  <advance width="500"/>
  <outline>
    <contour>
      <point x="133" y="-388" type="curve" smooth="yes"/>
      <point x="323" y="-388"/>
      <point x="415" y="-317"/>
      <point x="415" y="-47" type="curve" smooth="yes"/>
      <point x="415" y="1023" type="line"/>
      <point x="192" y="1023" type="line"/>
      <point x="192" y="-91" type="line" smooth="yes"/>
      <point x="192" y="-176"/>
      <point x="152" y="-207"/>
      <point x="97" y="-207" type="curve" smooth="yes"/>
      <point x="64" y="-207"/>
      <point x="21" y="-196"/>
      <point x="-23" y="-176" type="curve"/>
      <point x="-66" y="-342" type="line"/>
      <point x="-17" y="-370"/>
      <point x="62" y="-388"/>
    </contour>
    <contour>
      <point x="305" y="1023" type="move" name="top"/>
    </contour>
  </outline>
</glyph>
<glyph name="lc_ascender_stem" format="1">
  <advance width="1086"/>
  <outline>
    <contour>
      <point x="98" y="0" type="line"/>
      <point x="311" y="0" type="line"/>
      <point x="311" y="0"/>
      <point x="311" y="1474"/>
      <point x="311" y="1474" type="curve"/>
      <point x="98" y="1474" type="line"/>
    </contour>
  </outline>
</glyph>
<glyph name="lc_ascender_stem_2" format="1">
  <advance width="1078"/>
  <outline>
    <contour>
      <point x="87" y="0" type="line"/>
      <point x="250" y="0" type="line"/>
      <point x="250" y="0"/>
      <point x="299" y="735"/>
      <point x="299" y="735" type="curve"/>
      <point x="299" y="1474" type="line"/>
      <point x="87" y="1474" type="line"/>
    </contour>
  </outline>
</glyph>
<glyph name="lc_ascender_stem_3" format="1">
  <advance width="1078"/>
  <outline>
    <contour>
      <point x="988" y="0" type="line"/>
      <point x="988" y="1474" type="line"/>
      <point x="776" y="1474" type="line"/>
      <point x="776" y="735" type="line"/>
      <point x="776" y="735"/>
      <point x="825" y="0"/>
      <point x="825" y="0" type="curve"/>
    </contour>
  </outline>
</glyph>
<glyph name="lc_curved_stem" format="1">
  <advance width="1086"/>
  <outline>
    <contour>
      <point x="798" y="0" type="line"/>
      <point x="1010" y="0" type="line"/>
      <point x="1010" y="595" type="line" smooth="yes"/>
      <point x="1010" y="801"/>
      <point x="969" y="1044"/>
      <point x="646" y="1044" type="curve" smooth="yes"/>
      <point x="393" y="1044"/>
      <point x="274" y="884"/>
      <point x="224" y="624" type="curve"/>
      <point x="224" y="624"/>
      <point x="325" y="491"/>
      <point x="325" y="491" type="curve" smooth="yes"/>
      <point x="325" y="695"/>
      <point x="381" y="896"/>
      <point x="600" y="896" type="curve" smooth="yes"/>
      <point x="748" y="896"/>
      <point x="798" y="801"/>
      <point x="798" y="602" type="curve" smooth="yes"/>
    </contour>
  </outline>
</glyph>
<glyph name="lc_descender_stem" format="1">
  <advance width="1057"/>
  <outline>
    <contour>
      <point x="269" y="-370" type="line"/>
      <point x="269" y="-370"/>
      <point x="269" y="758"/>
      <point x="269" y="758" type="curve"/>
      <point x="243" y="1023" type="line"/>
      <point x="57" y="1023" type="line"/>
      <point x="57" y="-370" type="line"/>
    </contour>
  </outline>
</glyph>
<glyph name="uc_main_stem" format="1">
  <advance width="1457"/>
  <outline>
    <contour>
      <point x="324" y="0" type="curve"/>
      <point x="104" y="0" type="line"/>
      <point x="104" y="1464" type="line"/>
      <point x="324" y="1464" type="line"/>
      <point x="324" y="1464"/>
      <point x="324" y="0"/>
    </contour>
  </outline>
</glyph>
